{
	"patcher" : 	{
		"fileversion" : 1,
		"appversion" : 		{
			"major" : 8,
			"minor" : 5,
			"revision" : 5,
			"architecture" : "x64",
			"modernui" : 1
		}
,
		"classnamespace" : "box",
		"rect" : [ -2369.0, -14.0, 810.0, 569.0 ],
		"bglocked" : 0,
		"openinpresentation" : 1,
		"default_fontsize" : 12.0,
		"default_fontface" : 0,
		"default_fontname" : "Arial",
		"gridonopen" : 1,
		"gridsize" : [ 15.0, 15.0 ],
		"gridsnaponopen" : 1,
		"objectsnaponopen" : 1,
		"statusbarvisible" : 2,
		"toolbarvisible" : 1,
		"lefttoolbarpinned" : 0,
		"toptoolbarpinned" : 0,
		"righttoolbarpinned" : 0,
		"bottomtoolbarpinned" : 0,
		"toolbars_unpinned_last_save" : 0,
		"tallnewobj" : 0,
		"boxanimatetime" : 200,
		"enablehscroll" : 1,
		"enablevscroll" : 1,
		"devicewidth" : 0.0,
		"description" : "",
		"digest" : "",
		"tags" : "",
		"style" : "",
		"subpatcher_template" : "empty_in_out",
		"assistshowspatchername" : 0,
		"boxes" : [ 			{
				"box" : 				{
					"comment" : "",
					"id" : "obj-5",
					"index" : 0,
					"maxclass" : "outlet",
					"numinlets" : 1,
					"numoutlets" : 0,
					"patching_rect" : [ 120.5, 253.0, 30.0, 30.0 ]
				}

			}
, 			{
				"box" : 				{
					"id" : "obj-867",
					"maxclass" : "newobj",
					"numinlets" : 1,
					"numoutlets" : 1,
					"outlettype" : [ "" ],
					"patching_rect" : [ 479.0, 109.0, 102.0, 22.0 ],
					"text" : "prepend off_color"
				}

			}
, 			{
				"box" : 				{
					"id" : "obj-866",
					"maxclass" : "newobj",
					"numinlets" : 1,
					"numoutlets" : 1,
					"outlettype" : [ "" ],
					"patching_rect" : [ 120.5, 109.0, 102.0, 22.0 ],
					"text" : "prepend on_color"
				}

			}
, 			{
				"box" : 				{
					"id" : "obj-861",
					"maxclass" : "newobj",
					"numinlets" : 1,
					"numoutlets" : 1,
					"outlettype" : [ "" ],
					"patching_rect" : [ 479.0, 166.0, 53.0, 22.0 ],
					"text" : "prepend"
				}

			}
, 			{
				"box" : 				{
					"id" : "obj-860",
					"maxclass" : "newobj",
					"numinlets" : 1,
					"numoutlets" : 1,
					"outlettype" : [ "" ],
					"patching_rect" : [ 120.5, 177.0, 53.0, 22.0 ],
					"text" : "prepend"
				}

			}
, 			{
				"box" : 				{
					"id" : "obj-859",
					"maxclass" : "message",
					"numinlets" : 2,
					"numoutlets" : 1,
					"outlettype" : [ "" ],
					"patching_rect" : [ 32.0, 132.5, 41.0, 22.0 ],
					"text" : "set $1"
				}

			}
, 			{
				"box" : 				{
					"id" : "obj-162",
					"maxclass" : "number",
					"numinlets" : 1,
					"numoutlets" : 2,
					"outlettype" : [ "", "bang" ],
					"parameter_enable" : 0,
					"patching_rect" : [ 32.0, 85.0, 50.0, 22.0 ]
				}

			}
, 			{
				"box" : 				{
					"id" : "obj-27",
					"maxclass" : "newobj",
					"numinlets" : 1,
					"numoutlets" : 1,
					"outlettype" : [ "" ],
					"patching_rect" : [ 141.5, 427.0, 320.0, 22.0 ],
					"saved_object_attributes" : 					{
						"filename" : "djazz_device_launchpad_pro_mk3_build_view_preset.js",
						"parameter_enable" : 0
					}
,
					"text" : "js djazz_device_launchpad_pro_mk3_build_view_preset.js"
				}

			}
, 			{
				"box" : 				{
					"id" : "obj-10",
					"maxclass" : "message",
					"numinlets" : 2,
					"numoutlets" : 1,
					"outlettype" : [ "" ],
					"patching_rect" : [ 296.0, 311.0, 35.0, 22.0 ],
					"text" : "open"
				}

			}
, 			{
				"box" : 				{
					"id" : "obj-8",
					"maxclass" : "toggle",
					"numinlets" : 1,
					"numoutlets" : 1,
					"outlettype" : [ "int" ],
					"parameter_enable" : 0,
					"patching_rect" : [ 226.0, 257.0, 24.0, 24.0 ]
				}

			}
, 			{
				"box" : 				{
					"id" : "obj-6",
					"maxclass" : "message",
					"numinlets" : 2,
					"numoutlets" : 1,
					"outlettype" : [ "" ],
					"patching_rect" : [ 238.0, 311.0, 47.0, 22.0 ],
					"text" : "midi $1"
				}

			}
, 			{
				"box" : 				{
					"id" : "obj-4",
					"maxclass" : "newobj",
					"numinlets" : 1,
					"numoutlets" : 0,
					"patching_rect" : [ 251.0, 359.0, 61.0, 22.0 ],
					"text" : "mappings"
				}

			}
, 			{
				"box" : 				{
					"id" : "obj-3",
					"maxclass" : "newobj",
					"numinlets" : 1,
					"numoutlets" : 1,
					"outlettype" : [ "" ],
					"patching_rect" : [ 141.5, 389.0, 217.0, 22.0 ],
					"saved_object_attributes" : 					{
						"filename" : "djazz_build_device_database_mgr.js",
						"parameter_enable" : 0
					}
,
					"text" : "js djazz_build_device_database_mgr.js"
				}

			}
, 			{
				"box" : 				{
					"comment" : "MIDI number",
					"id" : "obj-1",
					"index" : 0,
					"maxclass" : "inlet",
					"numinlets" : 0,
					"numoutlets" : 1,
					"outlettype" : [ "" ],
					"patching_rect" : [ 32.0, 19.0, 30.0, 30.0 ]
				}

			}
, 			{
				"box" : 				{
					"bgcolor" : [ 255.0, 0.0, 0.0, 1.0 ],
					"bgoncolor" : [ 255.0, 0.0, 0.0, 1.0 ],
					"id" : "obj-810",
					"maxclass" : "textbutton",
					"numinlets" : 1,
					"numoutlets" : 3,
					"outlettype" : [ "", "", "int" ],
					"parameter_enable" : 0,
					"patching_rect" : [ 108.0, 19.0, 44.0, 44.0 ],
					"presentation" : 1,
					"presentation_rect" : [ 23.0, 21.0, 44.0, 44.0 ],
					"text" : "red",
					"textcolor" : [ 255.0, 0.0, 0.0, 1.0 ],
					"texton" : "red",
					"textoncolor" : [ 255.0, 0.0, 0.0, 1.0 ]
				}

			}
, 			{
				"box" : 				{
					"bgcolor" : [ 1.0, 0.647058823529412, 0.0, 1.0 ],
					"bgoncolor" : [ 255.0, 64.0, 0.0, 1.0 ],
					"id" : "obj-812",
					"maxclass" : "textbutton",
					"numinlets" : 1,
					"numoutlets" : 3,
					"outlettype" : [ "", "", "int" ],
					"parameter_enable" : 0,
					"patching_rect" : [ 152.0, 19.0, 44.0, 44.0 ],
					"presentation" : 1,
					"presentation_rect" : [ 67.0, 21.0, 44.0, 44.0 ],
					"text" : "orange",
					"textcolor" : [ 255.0, 64.0, 0.0, 1.0 ],
					"texton" : "orange",
					"textoncolor" : [ 1.0, 0.647058823529412, 0.0, 1.0 ]
				}

			}
, 			{
				"box" : 				{
					"bgcolor" : [ 255.0, 255.0, 0.0, 1.0 ],
					"bgoncolor" : [ 255.0, 255.0, 0.0, 1.0 ],
					"id" : "obj-814",
					"maxclass" : "textbutton",
					"numinlets" : 1,
					"numoutlets" : 3,
					"outlettype" : [ "", "", "int" ],
					"parameter_enable" : 0,
					"patching_rect" : [ 196.0, 19.0, 44.0, 44.0 ],
					"presentation" : 1,
					"presentation_rect" : [ 111.0, 21.0, 44.0, 44.0 ],
					"text" : "yellow",
					"textcolor" : [ 255.0, 255.0, 0.0, 1.0 ],
					"texton" : "yellow",
					"textoncolor" : [ 255.0, 255.0, 0.0, 1.0 ]
				}

			}
, 			{
				"box" : 				{
					"bgcolor" : [ 0.0, 255.0, 0.0, 1.0 ],
					"bgoncolor" : [ 0.0, 255.0, 0.0, 1.0 ],
					"id" : "obj-816",
					"maxclass" : "textbutton",
					"numinlets" : 1,
					"numoutlets" : 3,
					"outlettype" : [ "", "", "int" ],
					"parameter_enable" : 0,
					"patching_rect" : [ 240.0, 19.0, 44.0, 44.0 ],
					"presentation" : 1,
					"presentation_rect" : [ 155.0, 21.0, 44.0, 44.0 ],
					"text" : "green",
					"textcolor" : [ 0.0, 255.0, 0.0, 1.0 ],
					"texton" : "green",
					"textoncolor" : [ 0.0, 255.0, 0.0, 1.0 ]
				}

			}
, 			{
				"box" : 				{
					"bgcolor" : [ 0.0, 255.0, 255.0, 1.0 ],
					"bgoncolor" : [ 0.0, 255.0, 255.0, 1.0 ],
					"id" : "obj-818",
					"maxclass" : "textbutton",
					"numinlets" : 1,
					"numoutlets" : 3,
					"outlettype" : [ "", "", "int" ],
					"parameter_enable" : 0,
					"patching_rect" : [ 284.0, 19.0, 44.0, 44.0 ],
					"presentation" : 1,
					"presentation_rect" : [ 199.0, 21.0, 44.0, 44.0 ],
					"text" : "blue",
					"textcolor" : [ 0.0, 255.0, 255.0, 1.0 ],
					"texton" : "blue",
					"textoncolor" : [ 0.0, 255.0, 255.0, 1.0 ]
				}

			}
, 			{
				"box" : 				{
					"bgcolor" : [ 0.0, 0.0, 255.0, 1.0 ],
					"bgoncolor" : [ 0.0, 0.0, 255.0, 1.0 ],
					"id" : "obj-820",
					"maxclass" : "textbutton",
					"numinlets" : 1,
					"numoutlets" : 3,
					"outlettype" : [ "", "", "int" ],
					"parameter_enable" : 0,
					"patching_rect" : [ 328.0, 19.0, 44.0, 44.0 ],
					"presentation" : 1,
					"presentation_rect" : [ 243.0, 21.0, 44.0, 44.0 ],
					"text" : "indigo",
					"textcolor" : [ 0.0, 0.0, 255.0, 1.0 ],
					"texton" : "indigo",
					"textoncolor" : [ 0.0, 0.0, 255.0, 1.0 ]
				}

			}
, 			{
				"box" : 				{
					"bgcolor" : [ 255.0, 0.0, 255.0, 1.0 ],
					"bgoncolor" : [ 255.0, 0.0, 255.0, 1.0 ],
					"id" : "obj-822",
					"maxclass" : "textbutton",
					"numinlets" : 1,
					"numoutlets" : 3,
					"outlettype" : [ "", "", "int" ],
					"parameter_enable" : 0,
					"patching_rect" : [ 372.0, 19.0, 44.0, 44.0 ],
					"presentation" : 1,
					"presentation_rect" : [ 287.0, 21.0, 44.0, 44.0 ],
					"text" : "violet",
					"textcolor" : [ 255.0, 0.0, 255.0, 1.0 ],
					"texton" : "violet",
					"textoncolor" : [ 255.0, 0.0, 255.0, 1.0 ]
				}

			}
, 			{
				"box" : 				{
					"bgcolor" : [ 255.0, 0.0, 0.0, 1.0 ],
					"bgoncolor" : [ 255.0, 0.0, 0.0, 1.0 ],
					"id" : "obj-827",
					"maxclass" : "textbutton",
					"numinlets" : 1,
					"numoutlets" : 3,
					"outlettype" : [ "", "", "int" ],
					"parameter_enable" : 0,
					"patching_rect" : [ 466.5, 19.0, 44.0, 44.0 ],
					"presentation" : 1,
					"presentation_rect" : [ 23.0, 79.0, 44.0, 44.0 ],
					"text" : "red",
					"textcolor" : [ 255.0, 0.0, 0.0, 1.0 ],
					"texton" : "red",
					"textoncolor" : [ 255.0, 0.0, 0.0, 1.0 ]
				}

			}
, 			{
				"box" : 				{
					"bgcolor" : [ 1.0, 0.647058823529412, 0.0, 1.0 ],
					"bgoncolor" : [ 255.0, 64.0, 0.0, 1.0 ],
					"id" : "obj-829",
					"maxclass" : "textbutton",
					"numinlets" : 1,
					"numoutlets" : 3,
					"outlettype" : [ "", "", "int" ],
					"parameter_enable" : 0,
					"patching_rect" : [ 510.5, 19.0, 44.0, 44.0 ],
					"presentation" : 1,
					"presentation_rect" : [ 67.0, 79.0, 44.0, 44.0 ],
					"text" : "orange",
					"textcolor" : [ 255.0, 64.0, 0.0, 1.0 ],
					"texton" : "orange",
					"textoncolor" : [ 1.0, 0.647058823529412, 0.0, 1.0 ]
				}

			}
, 			{
				"box" : 				{
					"bgcolor" : [ 255.0, 255.0, 0.0, 1.0 ],
					"bgoncolor" : [ 255.0, 255.0, 0.0, 1.0 ],
					"id" : "obj-831",
					"maxclass" : "textbutton",
					"numinlets" : 1,
					"numoutlets" : 3,
					"outlettype" : [ "", "", "int" ],
					"parameter_enable" : 0,
					"patching_rect" : [ 554.5, 19.0, 44.0, 44.0 ],
					"presentation" : 1,
					"presentation_rect" : [ 111.0, 79.0, 44.0, 44.0 ],
					"text" : "yellow",
					"textcolor" : [ 255.0, 255.0, 0.0, 1.0 ],
					"texton" : "yellow",
					"textoncolor" : [ 255.0, 255.0, 0.0, 1.0 ]
				}

			}
, 			{
				"box" : 				{
					"bgcolor" : [ 0.0, 255.0, 0.0, 1.0 ],
					"bgoncolor" : [ 0.0, 255.0, 0.0, 1.0 ],
					"id" : "obj-833",
					"maxclass" : "textbutton",
					"numinlets" : 1,
					"numoutlets" : 3,
					"outlettype" : [ "", "", "int" ],
					"parameter_enable" : 0,
					"patching_rect" : [ 598.5, 19.0, 44.0, 44.0 ],
					"presentation" : 1,
					"presentation_rect" : [ 155.0, 79.0, 44.0, 44.0 ],
					"text" : "green",
					"textcolor" : [ 0.0, 255.0, 0.0, 1.0 ],
					"texton" : "green",
					"textoncolor" : [ 0.0, 255.0, 0.0, 1.0 ]
				}

			}
, 			{
				"box" : 				{
					"bgcolor" : [ 0.0, 255.0, 255.0, 1.0 ],
					"bgoncolor" : [ 0.0, 255.0, 255.0, 1.0 ],
					"id" : "obj-835",
					"maxclass" : "textbutton",
					"numinlets" : 1,
					"numoutlets" : 3,
					"outlettype" : [ "", "", "int" ],
					"parameter_enable" : 0,
					"patching_rect" : [ 642.5, 19.0, 44.0, 44.0 ],
					"presentation" : 1,
					"presentation_rect" : [ 199.0, 79.0, 44.0, 44.0 ],
					"text" : "blue",
					"textcolor" : [ 0.0, 255.0, 255.0, 1.0 ],
					"texton" : "blue",
					"textoncolor" : [ 0.0, 255.0, 255.0, 1.0 ]
				}

			}
, 			{
				"box" : 				{
					"bgcolor" : [ 0.0, 0.0, 255.0, 1.0 ],
					"bgoncolor" : [ 0.0, 0.0, 255.0, 1.0 ],
					"id" : "obj-837",
					"maxclass" : "textbutton",
					"numinlets" : 1,
					"numoutlets" : 3,
					"outlettype" : [ "", "", "int" ],
					"parameter_enable" : 0,
					"patching_rect" : [ 686.5, 19.0, 44.0, 44.0 ],
					"presentation" : 1,
					"presentation_rect" : [ 243.0, 79.0, 44.0, 44.0 ],
					"text" : "indigo",
					"textcolor" : [ 0.0, 0.0, 255.0, 1.0 ],
					"texton" : "indigo",
					"textoncolor" : [ 0.0, 0.0, 255.0, 1.0 ]
				}

			}
, 			{
				"box" : 				{
					"bgcolor" : [ 255.0, 0.0, 255.0, 1.0 ],
					"bgoncolor" : [ 255.0, 0.0, 255.0, 1.0 ],
					"id" : "obj-839",
					"maxclass" : "textbutton",
					"numinlets" : 1,
					"numoutlets" : 3,
					"outlettype" : [ "", "", "int" ],
					"parameter_enable" : 0,
					"patching_rect" : [ 730.5, 19.0, 44.0, 44.0 ],
					"presentation" : 1,
					"presentation_rect" : [ 287.0, 79.0, 44.0, 44.0 ],
					"text" : "violet",
					"textcolor" : [ 255.0, 0.0, 255.0, 1.0 ],
					"texton" : "violet",
					"textoncolor" : [ 255.0, 0.0, 255.0, 1.0 ]
				}

			}
 ],
		"lines" : [ 			{
				"patchline" : 				{
					"destination" : [ "obj-162", 0 ],
					"source" : [ "obj-1", 0 ]
				}

			}
, 			{
				"patchline" : 				{
					"destination" : [ "obj-4", 0 ],
					"source" : [ "obj-10", 0 ]
				}

			}
, 			{
				"patchline" : 				{
					"destination" : [ "obj-859", 0 ],
					"source" : [ "obj-162", 0 ]
				}

			}
, 			{
				"patchline" : 				{
					"destination" : [ "obj-4", 0 ],
					"source" : [ "obj-6", 0 ]
				}

			}
, 			{
				"patchline" : 				{
					"destination" : [ "obj-6", 0 ],
					"source" : [ "obj-8", 0 ]
				}

			}
, 			{
				"patchline" : 				{
					"destination" : [ "obj-866", 0 ],
					"source" : [ "obj-810", 1 ]
				}

			}
, 			{
				"patchline" : 				{
					"destination" : [ "obj-866", 0 ],
					"source" : [ "obj-812", 1 ]
				}

			}
, 			{
				"patchline" : 				{
					"destination" : [ "obj-866", 0 ],
					"source" : [ "obj-814", 1 ]
				}

			}
, 			{
				"patchline" : 				{
					"destination" : [ "obj-866", 0 ],
					"source" : [ "obj-816", 1 ]
				}

			}
, 			{
				"patchline" : 				{
					"destination" : [ "obj-866", 0 ],
					"source" : [ "obj-818", 1 ]
				}

			}
, 			{
				"patchline" : 				{
					"destination" : [ "obj-866", 0 ],
					"source" : [ "obj-820", 1 ]
				}

			}
, 			{
				"patchline" : 				{
					"destination" : [ "obj-866", 0 ],
					"source" : [ "obj-822", 1 ]
				}

			}
, 			{
				"patchline" : 				{
					"destination" : [ "obj-867", 0 ],
					"source" : [ "obj-827", 1 ]
				}

			}
, 			{
				"patchline" : 				{
					"destination" : [ "obj-867", 0 ],
					"source" : [ "obj-829", 1 ]
				}

			}
, 			{
				"patchline" : 				{
					"destination" : [ "obj-867", 0 ],
					"source" : [ "obj-831", 1 ]
				}

			}
, 			{
				"patchline" : 				{
					"destination" : [ "obj-867", 0 ],
					"source" : [ "obj-833", 1 ]
				}

			}
, 			{
				"patchline" : 				{
					"destination" : [ "obj-867", 0 ],
					"source" : [ "obj-835", 1 ]
				}

			}
, 			{
				"patchline" : 				{
					"destination" : [ "obj-867", 0 ],
					"source" : [ "obj-837", 1 ]
				}

			}
, 			{
				"patchline" : 				{
					"destination" : [ "obj-867", 0 ],
					"source" : [ "obj-839", 1 ]
				}

			}
, 			{
				"patchline" : 				{
					"destination" : [ "obj-860", 0 ],
					"order" : 1,
					"source" : [ "obj-859", 0 ]
				}

			}
, 			{
				"patchline" : 				{
					"destination" : [ "obj-861", 0 ],
					"order" : 0,
					"source" : [ "obj-859", 0 ]
				}

			}
, 			{
				"patchline" : 				{
					"destination" : [ "obj-5", 0 ],
					"source" : [ "obj-860", 0 ]
				}

			}
, 			{
				"patchline" : 				{
					"destination" : [ "obj-5", 0 ],
					"source" : [ "obj-861", 0 ]
				}

			}
, 			{
				"patchline" : 				{
					"destination" : [ "obj-860", 0 ],
					"source" : [ "obj-866", 0 ]
				}

			}
, 			{
				"patchline" : 				{
					"destination" : [ "obj-861", 0 ],
					"source" : [ "obj-867", 0 ]
				}

			}
 ],
		"dependency_cache" : [ 			{
				"name" : "djazz_build_device_database_mgr.js",
				"bootpath" : "~/Documents/Max 8/Projects/djazz_db/code",
				"patcherrelativepath" : "../code",
				"type" : "TEXT",
				"implicit" : 1
			}
, 			{
				"name" : "djazz_device_launchpad_pro_mk3_build_view_preset.js",
				"bootpath" : "~/Documents/Max 8/Projects/djazz_db/code",
				"patcherrelativepath" : "../code",
				"type" : "TEXT",
				"implicit" : 1
			}
 ],
		"autosave" : 0
	}

}
