{
	"patcher" : 	{
		"fileversion" : 1,
		"appversion" : 		{
			"major" : 8,
			"minor" : 5,
			"revision" : 4,
			"architecture" : "x64",
			"modernui" : 1
		}
,
		"classnamespace" : "box",
		"rect" : [ 134.0, 202.0, 858.0, 620.0 ],
		"bglocked" : 0,
		"openinpresentation" : 0,
		"default_fontsize" : 12.0,
		"default_fontface" : 0,
		"default_fontname" : "Arial",
		"gridonopen" : 1,
		"gridsize" : [ 15.0, 15.0 ],
		"gridsnaponopen" : 1,
		"objectsnaponopen" : 1,
		"statusbarvisible" : 2,
		"toolbarvisible" : 1,
		"lefttoolbarpinned" : 0,
		"toptoolbarpinned" : 0,
		"righttoolbarpinned" : 0,
		"bottomtoolbarpinned" : 0,
		"toolbars_unpinned_last_save" : 0,
		"tallnewobj" : 0,
		"boxanimatetime" : 200,
		"enablehscroll" : 1,
		"enablevscroll" : 1,
		"devicewidth" : 0.0,
		"description" : "",
		"digest" : "",
		"tags" : "",
		"style" : "",
		"subpatcher_template" : "",
		"assistshowspatchername" : 0,
		"boxes" : [ 			{
				"box" : 				{
					"id" : "obj-3",
					"maxclass" : "newobj",
					"numinlets" : 1,
					"numoutlets" : 2,
					"outlettype" : [ "", "" ],
					"patching_rect" : [ 141.833333000000039, 115.228515625, 53.0, 22.0 ],
					"text" : "pattrhub",
					"varname" : "u945001749"
				}

			}
, 			{
				"box" : 				{
					"comment" : "midi",
					"id" : "obj-4",
					"index" : 1,
					"maxclass" : "outlet",
					"numinlets" : 1,
					"numoutlets" : 0,
					"patching_rect" : [ 39.0, 405.45703125, 30.0, 30.0 ]
				}

			}
, 			{
				"box" : 				{
					"active" : 					{
						"midi_player_1::djazz_midi_generator" : 0,
						"midi_player_1::djazz_midi_generator::composer" : 0,
						"midi_player_1::djazz_midi_generator::composer::score_file" : 0,
						"midi_player_1::djazz_midi_generator::composer::tempo" : 0,
						"midi_player_1::djazz_midi_generator::tap" : 0,
						"midi_player_1::djazz_midi_generator::tap::tempo" : 0,
						"midi_player_1::djazz_midi_generator::tap::count" : 0,
						"midi_player_1::djazz_midi_generator::loop_beats" : 0,
						"midi_player_1::djazz_midi_generator::loop_beats::loop_length" : 0,
						"midi_player_1::djazz_midi_generator::loop_beats::djazz_beat_loop_length_ctrl" : 0,
						"midi_player_1::djazz_midi_generator::loop_beats::djazz_beat_loop_length_ctrl::loop_length" : 0,
						"midi_player_1::djazz_midi_generator::loop_beats::djazz_loop_beats" : 0,
						"midi_player_1::djazz_midi_generator::loop_beats::djazz_loop_beats::mode" : 0,
						"midi_player_1::djazz_midi_generator::beat_clock" : 0,
						"midi_player_1::djazz_midi_generator::beat_clock::next_beat" : 0,
						"midi_player_1::djazz_midi_generator::djazz_speed_control" : 0,
						"midi_player_1::djazz_midi_generator::djazz_speed_control::speed" : 0,
						"midi_player_1::djazz_midi_generator::djazz_speed_control::tempo" : 0
					}
,
					"id" : "obj-1",
					"linecount" : 2,
					"maxclass" : "newobj",
					"numinlets" : 1,
					"numoutlets" : 1,
					"outlettype" : [ "" ],
					"patching_rect" : [ 141.833333000000039, 292.45703125, 113.0, 35.0 ],
					"saved_object_attributes" : 					{
						"client_rect" : [ 1298, 114, 1706, 848 ],
						"parameter_enable" : 0,
						"parameter_mappable" : 0,
						"storage_rect" : [ 583, 100, 1520, 798 ]
					}
,
					"text" : "pattrstorage model @outputmode 2",
					"varname" : "model"
				}

			}
, 			{
				"box" : 				{
					"id" : "obj-100",
					"maxclass" : "newobj",
					"numinlets" : 3,
					"numoutlets" : 2,
					"outlettype" : [ "", "" ],
					"patching_rect" : [ 594.833333000000039, 240.228515625, 154.0, 22.0 ],
					"text" : "djazz_midi_player player_1",
					"varname" : "midi_player_1"
				}

			}
, 			{
				"box" : 				{
					"id" : "obj-47",
					"maxclass" : "button",
					"numinlets" : 1,
					"numoutlets" : 1,
					"outlettype" : [ "bang" ],
					"parameter_enable" : 0,
					"patching_rect" : [ 396.0, 177.228515625, 24.0, 24.0 ]
				}

			}
, 			{
				"box" : 				{
					"id" : "obj-42",
					"maxclass" : "newobj",
					"numinlets" : 2,
					"numoutlets" : 1,
					"outlettype" : [ "" ],
					"patching_rect" : [ 396.0, 240.228515625, 101.0, 22.0 ],
					"text" : "djazz_beat_clock",
					"varname" : "master_clock"
				}

			}
, 			{
				"box" : 				{
					"comment" : "bang",
					"id" : "obj-110",
					"index" : 1,
					"maxclass" : "inlet",
					"numinlets" : 0,
					"numoutlets" : 1,
					"outlettype" : [ "bang" ],
					"patching_rect" : [ 32.0, 18.999999624999987, 30.0, 30.0 ]
				}

			}
, 			{
				"box" : 				{
					"comment" : "ctrl",
					"id" : "obj-113",
					"index" : 2,
					"maxclass" : "inlet",
					"numinlets" : 0,
					"numoutlets" : 1,
					"outlettype" : [ "" ],
					"patching_rect" : [ 141.833333000000039, 18.999999624999987, 30.0, 30.0 ]
				}

			}
, 			{
				"box" : 				{
					"comment" : "components",
					"id" : "obj-114",
					"index" : 3,
					"maxclass" : "inlet",
					"numinlets" : 0,
					"numoutlets" : 1,
					"outlettype" : [ "" ],
					"patching_rect" : [ 254.833333000000039, 18.999999624999987, 30.0, 30.0 ]
				}

			}
, 			{
				"box" : 				{
					"comment" : "ctrl",
					"id" : "obj-115",
					"index" : 2,
					"maxclass" : "outlet",
					"numinlets" : 1,
					"numoutlets" : 0,
					"patching_rect" : [ 141.833333000000039, 405.685546875, 30.0, 30.0 ]
				}

			}
 ],
		"lines" : [ 			{
				"patchline" : 				{
					"destination" : [ "obj-115", 0 ],
					"source" : [ "obj-1", 0 ]
				}

			}
, 			{
				"patchline" : 				{
					"destination" : [ "obj-4", 0 ],
					"source" : [ "obj-100", 0 ]
				}

			}
, 			{
				"patchline" : 				{
					"destination" : [ "obj-47", 0 ],
					"source" : [ "obj-110", 0 ]
				}

			}
, 			{
				"patchline" : 				{
					"destination" : [ "obj-3", 0 ],
					"source" : [ "obj-113", 0 ]
				}

			}
, 			{
				"patchline" : 				{
					"destination" : [ "obj-100", 2 ],
					"source" : [ "obj-114", 0 ]
				}

			}
, 			{
				"patchline" : 				{
					"destination" : [ "obj-100", 0 ],
					"order" : 0,
					"source" : [ "obj-47", 0 ]
				}

			}
, 			{
				"patchline" : 				{
					"destination" : [ "obj-42", 0 ],
					"order" : 1,
					"source" : [ "obj-47", 0 ]
				}

			}
 ]
	}

}
