{
	"patcher" : 	{
		"fileversion" : 1,
		"appversion" : 		{
			"major" : 8,
			"minor" : 5,
			"revision" : 5,
			"architecture" : "x64",
			"modernui" : 1
		}
,
		"classnamespace" : "box",
		"rect" : [ -3048.0, -78.0, 2374.0, 1149.0 ],
		"bglocked" : 0,
		"openinpresentation" : 0,
		"default_fontsize" : 12.0,
		"default_fontface" : 0,
		"default_fontname" : "Arial",
		"gridonopen" : 1,
		"gridsize" : [ 15.0, 15.0 ],
		"gridsnaponopen" : 1,
		"objectsnaponopen" : 1,
		"statusbarvisible" : 2,
		"toolbarvisible" : 1,
		"lefttoolbarpinned" : 0,
		"toptoolbarpinned" : 0,
		"righttoolbarpinned" : 0,
		"bottomtoolbarpinned" : 0,
		"toolbars_unpinned_last_save" : 0,
		"tallnewobj" : 0,
		"boxanimatetime" : 200,
		"enablehscroll" : 1,
		"enablevscroll" : 1,
		"devicewidth" : 0.0,
		"description" : "",
		"digest" : "",
		"tags" : "",
		"style" : "",
		"subpatcher_template" : "",
		"assistshowspatchername" : 0,
		"boxes" : [ 			{
				"box" : 				{
					"id" : "obj-108",
					"maxclass" : "message",
					"numinlets" : 2,
					"numoutlets" : 1,
					"outlettype" : [ "" ],
					"patching_rect" : [ 1263.30264687538147, 235.208607792854309, 31.0, 22.0 ],
					"text" : "stop"
				}

			}
, 			{
				"box" : 				{
					"id" : "obj-106",
					"maxclass" : "message",
					"numinlets" : 2,
					"numoutlets" : 1,
					"outlettype" : [ "" ],
					"patching_rect" : [ 1208.256779909133911, 235.208607792854309, 35.0, 22.0 ],
					"text" : "reset"
				}

			}
, 			{
				"box" : 				{
					"id" : "obj-91",
					"maxclass" : "message",
					"numinlets" : 2,
					"numoutlets" : 1,
					"outlettype" : [ "" ],
					"patching_rect" : [ 443.119229078292847, 165.137600898742676, 29.5, 22.0 ],
					"text" : "set"
				}

			}
, 			{
				"box" : 				{
					"id" : "obj-89",
					"maxclass" : "newobj",
					"numinlets" : 2,
					"numoutlets" : 2,
					"outlettype" : [ "bang", "" ],
					"patching_rect" : [ 443.119229078292847, 115.596320629119873, 34.0, 22.0 ],
					"text" : "sel 0"
				}

			}
, 			{
				"box" : 				{
					"id" : "obj-88",
					"maxclass" : "newobj",
					"numinlets" : 1,
					"numoutlets" : 2,
					"outlettype" : [ "", "" ],
					"patching_rect" : [ 368.542053699493408, 416.513726711273193, 82.711004734039307, 22.0 ],
					"text" : "t l l"
				}

			}
, 			{
				"box" : 				{
					"id" : "obj-87",
					"int" : 1,
					"maxclass" : "gswitch2",
					"numinlets" : 2,
					"numoutlets" : 2,
					"outlettype" : [ "", "" ],
					"parameter_enable" : 0,
					"patching_rect" : [ 328.409026980400085, 353.429905593395233, 59.133026719093323, 32.0 ]
				}

			}
, 			{
				"box" : 				{
					"id" : "obj-86",
					"maxclass" : "newobj",
					"numinlets" : 2,
					"numoutlets" : 1,
					"outlettype" : [ "" ],
					"patcher" : 					{
						"fileversion" : 1,
						"appversion" : 						{
							"major" : 8,
							"minor" : 5,
							"revision" : 5,
							"architecture" : "x64",
							"modernui" : 1
						}
,
						"classnamespace" : "box",
						"rect" : [ 59.0, 106.0, 640.0, 480.0 ],
						"bglocked" : 0,
						"openinpresentation" : 0,
						"default_fontsize" : 12.0,
						"default_fontface" : 0,
						"default_fontname" : "Arial",
						"gridonopen" : 1,
						"gridsize" : [ 15.0, 15.0 ],
						"gridsnaponopen" : 1,
						"objectsnaponopen" : 1,
						"statusbarvisible" : 2,
						"toolbarvisible" : 1,
						"lefttoolbarpinned" : 0,
						"toptoolbarpinned" : 0,
						"righttoolbarpinned" : 0,
						"bottomtoolbarpinned" : 0,
						"toolbars_unpinned_last_save" : 0,
						"tallnewobj" : 0,
						"boxanimatetime" : 200,
						"enablehscroll" : 1,
						"enablevscroll" : 1,
						"devicewidth" : 0.0,
						"description" : "",
						"digest" : "",
						"tags" : "",
						"style" : "",
						"subpatcher_template" : "",
						"assistshowspatchername" : 0,
						"boxes" : [ 							{
								"box" : 								{
									"id" : "obj-82",
									"maxclass" : "newobj",
									"numinlets" : 2,
									"numoutlets" : 2,
									"outlettype" : [ "bang", "" ],
									"patching_rect" : [ 73.610089063644409, 377.981628179550171, 38.0, 22.0 ],
									"text" : "sel -1"
								}

							}
, 							{
								"box" : 								{
									"id" : "obj-81",
									"maxclass" : "message",
									"numinlets" : 2,
									"numoutlets" : 1,
									"outlettype" : [ "" ],
									"patching_rect" : [ 254.587138891220093, 263.302738666534424, 29.5, 22.0 ],
									"text" : "$2"
								}

							}
, 							{
								"box" : 								{
									"id" : "obj-79",
									"maxclass" : "newobj",
									"numinlets" : 2,
									"numoutlets" : 1,
									"outlettype" : [ "" ],
									"patching_rect" : [ 211.467876434326172, 353.21098804473877, 54.0, 22.0 ],
									"text" : "pack 0 0"
								}

							}
, 							{
								"box" : 								{
									"id" : "obj-78",
									"maxclass" : "message",
									"numinlets" : 2,
									"numoutlets" : 1,
									"outlettype" : [ "" ],
									"patching_rect" : [ 211.467876434326172, 421.100890636444092, 49.0, 22.0 ],
									"text" : "$1 $2 1"
								}

							}
, 							{
								"box" : 								{
									"id" : "obj-76",
									"maxclass" : "message",
									"numinlets" : 2,
									"numoutlets" : 1,
									"outlettype" : [ "" ],
									"patching_rect" : [ 145.412836074829102, 263.302738666534424, 41.0, 22.0 ],
									"text" : "set $1"
								}

							}
, 							{
								"box" : 								{
									"id" : "obj-74",
									"maxclass" : "number",
									"numinlets" : 1,
									"numoutlets" : 2,
									"outlettype" : [ "", "bang" ],
									"parameter_enable" : 0,
									"patching_rect" : [ 82.110089063644409, 347.000540912151337, 50.0, 22.0 ]
								}

							}
, 							{
								"box" : 								{
									"id" : "obj-72",
									"maxclass" : "message",
									"numinlets" : 2,
									"numoutlets" : 1,
									"outlettype" : [ "" ],
									"patching_rect" : [ 82.110089063644409, 263.302738666534424, 39.0, 22.0 ],
									"text" : "set -1"
								}

							}
, 							{
								"box" : 								{
									"id" : "obj-70",
									"int" : 1,
									"maxclass" : "gswitch2",
									"numinlets" : 2,
									"numoutlets" : 2,
									"outlettype" : [ "", "" ],
									"parameter_enable" : 0,
									"patching_rect" : [ 82.110089063644409, 195.412836074829102, 39.0, 32.0 ]
								}

							}
, 							{
								"box" : 								{
									"id" : "obj-69",
									"maxclass" : "newobj",
									"numinlets" : 1,
									"numoutlets" : 2,
									"outlettype" : [ "", "" ],
									"patching_rect" : [ 50.0, 100.0, 50.600915670394897, 22.0 ],
									"text" : "t l l"
								}

							}
, 							{
								"box" : 								{
									"id" : "obj-68",
									"maxclass" : "message",
									"numinlets" : 2,
									"numoutlets" : 1,
									"outlettype" : [ "" ],
									"patching_rect" : [ 81.600915670394897, 147.000540912151337, 29.5, 22.0 ],
									"text" : "$3"
								}

							}
, 							{
								"box" : 								{
									"id" : "obj-63",
									"maxclass" : "newobj",
									"numinlets" : 2,
									"numoutlets" : 1,
									"outlettype" : [ "int" ],
									"patching_rect" : [ 82.110089063644409, 426.605477333068848, 29.5, 22.0 ],
									"text" : "+ 1"
								}

							}
, 							{
								"box" : 								{
									"comment" : "",
									"id" : "obj-83",
									"index" : 2,
									"maxclass" : "inlet",
									"numinlets" : 0,
									"numoutlets" : 1,
									"outlettype" : [ "list" ],
									"patching_rect" : [ 49.999979562408498, 40.000004764328025, 30.0, 30.0 ]
								}

							}
, 							{
								"box" : 								{
									"comment" : "",
									"id" : "obj-84",
									"index" : 1,
									"maxclass" : "inlet",
									"numinlets" : 0,
									"numoutlets" : 1,
									"outlettype" : [ "bang" ],
									"patching_rect" : [ 5.110086562408469, 40.000004764328025, 30.0, 30.0 ]
								}

							}
, 							{
								"box" : 								{
									"comment" : "",
									"id" : "obj-85",
									"index" : 1,
									"maxclass" : "outlet",
									"numinlets" : 1,
									"numoutlets" : 0,
									"patching_rect" : [ 211.467874562408497, 517.493168764327947, 30.0, 30.0 ]
								}

							}
 ],
						"lines" : [ 							{
								"patchline" : 								{
									"destination" : [ "obj-76", 0 ],
									"order" : 1,
									"source" : [ "obj-63", 0 ]
								}

							}
, 							{
								"patchline" : 								{
									"destination" : [ "obj-79", 0 ],
									"order" : 0,
									"source" : [ "obj-63", 0 ]
								}

							}
, 							{
								"patchline" : 								{
									"destination" : [ "obj-70", 0 ],
									"source" : [ "obj-68", 0 ]
								}

							}
, 							{
								"patchline" : 								{
									"destination" : [ "obj-68", 0 ],
									"source" : [ "obj-69", 1 ]
								}

							}
, 							{
								"patchline" : 								{
									"destination" : [ "obj-70", 1 ],
									"source" : [ "obj-69", 0 ]
								}

							}
, 							{
								"patchline" : 								{
									"destination" : [ "obj-72", 0 ],
									"source" : [ "obj-70", 0 ]
								}

							}
, 							{
								"patchline" : 								{
									"destination" : [ "obj-76", 0 ],
									"order" : 1,
									"source" : [ "obj-70", 1 ]
								}

							}
, 							{
								"patchline" : 								{
									"destination" : [ "obj-81", 0 ],
									"order" : 0,
									"source" : [ "obj-70", 1 ]
								}

							}
, 							{
								"patchline" : 								{
									"destination" : [ "obj-74", 0 ],
									"source" : [ "obj-72", 0 ]
								}

							}
, 							{
								"patchline" : 								{
									"destination" : [ "obj-82", 0 ],
									"source" : [ "obj-74", 0 ]
								}

							}
, 							{
								"patchline" : 								{
									"destination" : [ "obj-74", 0 ],
									"source" : [ "obj-76", 0 ]
								}

							}
, 							{
								"patchline" : 								{
									"destination" : [ "obj-85", 0 ],
									"source" : [ "obj-78", 0 ]
								}

							}
, 							{
								"patchline" : 								{
									"destination" : [ "obj-78", 0 ],
									"source" : [ "obj-79", 0 ]
								}

							}
, 							{
								"patchline" : 								{
									"destination" : [ "obj-79", 1 ],
									"source" : [ "obj-81", 0 ]
								}

							}
, 							{
								"patchline" : 								{
									"destination" : [ "obj-63", 0 ],
									"source" : [ "obj-82", 1 ]
								}

							}
, 							{
								"patchline" : 								{
									"destination" : [ "obj-69", 0 ],
									"source" : [ "obj-83", 0 ]
								}

							}
, 							{
								"patchline" : 								{
									"destination" : [ "obj-74", 0 ],
									"source" : [ "obj-84", 0 ]
								}

							}
 ]
					}
,
					"patching_rect" : [ 545.606259107589722, 83.871547224884011, 38.0, 22.0 ],
					"saved_object_attributes" : 					{
						"description" : "",
						"digest" : "",
						"globalpatchername" : "",
						"tags" : ""
					}
,
					"text" : "p incr"
				}

			}
, 			{
				"box" : 				{
					"id" : "obj-61",
					"maxclass" : "button",
					"numinlets" : 1,
					"numoutlets" : 1,
					"outlettype" : [ "bang" ],
					"parameter_enable" : 0,
					"patching_rect" : [ 545.606259107589722, 41.422034502029419, 24.0, 24.0 ]
				}

			}
, 			{
				"box" : 				{
					"id" : "obj-58",
					"maxclass" : "newobj",
					"numinlets" : 1,
					"numoutlets" : 2,
					"outlettype" : [ "int", "int" ],
					"patching_rect" : [ 432.253058433532715, 670.719362497329712, 67.0, 22.0 ],
					"text" : "unpack 0 0"
				}

			}
, 			{
				"box" : 				{
					"id" : "obj-55",
					"int" : 1,
					"maxclass" : "gswitch2",
					"numinlets" : 2,
					"numoutlets" : 2,
					"outlettype" : [ "", "" ],
					"parameter_enable" : 0,
					"patching_rect" : [ 412.253058433532715, 747.794133841991425, 39.0, 32.0 ]
				}

			}
, 			{
				"box" : 				{
					"id" : "obj-54",
					"int" : 1,
					"maxclass" : "gswitch",
					"numinlets" : 3,
					"numoutlets" : 1,
					"outlettype" : [ "" ],
					"parameter_enable" : 0,
					"patching_rect" : [ 368.542053699493408, 293.376146674156189, 81.0, 29.247706651687622 ]
				}

			}
, 			{
				"box" : 				{
					"id" : "obj-52",
					"maxclass" : "newobj",
					"numinlets" : 2,
					"numoutlets" : 1,
					"outlettype" : [ "int" ],
					"patching_rect" : [ 368.542053699493408, 230.383266746997833, 29.5, 22.0 ],
					"text" : "- 1"
				}

			}
, 			{
				"box" : 				{
					"disabled" : [ 0, 0, 0 ],
					"id" : "obj-48",
					"itemtype" : 0,
					"maxclass" : "radiogroup",
					"numinlets" : 1,
					"numoutlets" : 1,
					"outlettype" : [ "" ],
					"parameter_enable" : 0,
					"patching_rect" : [ 328.409026980400085, 139.458711385726929, 18.0, 50.0 ],
					"size" : 3,
					"value" : 2
				}

			}
, 			{
				"box" : 				{
					"columns" : 32,
					"id" : "obj-43",
					"maxclass" : "matrixctrl",
					"numinlets" : 1,
					"numoutlets" : 2,
					"one/matrix" : 1,
					"outlettype" : [ "list", "list" ],
					"parameter_enable" : 0,
					"patching_rect" : [ 545.606259107589722, 235.208607792854309, 651.0, 29.130841135978699 ],
					"rows" : 1
				}

			}
, 			{
				"box" : 				{
					"id" : "obj-42",
					"maxclass" : "comment",
					"numinlets" : 1,
					"numoutlets" : 0,
					"patching_rect" : [ 1074.349337339401245, 374.52344936132431, 106.0, 20.0 ],
					"text" : "column row active"
				}

			}
, 			{
				"box" : 				{
					"format" : 6,
					"id" : "obj-40",
					"maxclass" : "flonum",
					"numinlets" : 1,
					"numoutlets" : 2,
					"outlettype" : [ "", "bang" ],
					"parameter_enable" : 0,
					"patching_rect" : [ 211.0, 297.0, 50.0, 22.0 ]
				}

			}
, 			{
				"box" : 				{
					"id" : "obj-38",
					"maxclass" : "message",
					"numinlets" : 2,
					"numoutlets" : 1,
					"outlettype" : [ "" ],
					"patching_rect" : [ 110.0, 175.0, 35.0, 22.0 ],
					"text" : "reset"
				}

			}
, 			{
				"box" : 				{
					"id" : "obj-36",
					"maxclass" : "button",
					"numinlets" : 1,
					"numoutlets" : 1,
					"outlettype" : [ "bang" ],
					"parameter_enable" : 0,
					"patching_rect" : [ 32.0, 27.0, 24.0, 24.0 ]
				}

			}
, 			{
				"box" : 				{
					"id" : "obj-34",
					"maxclass" : "newobj",
					"numinlets" : 1,
					"numoutlets" : 2,
					"outlettype" : [ "", "bang" ],
					"patching_rect" : [ 32.0, 103.0, 67.0, 22.0 ],
					"text" : "opendialog"
				}

			}
, 			{
				"box" : 				{
					"id" : "obj-33",
					"maxclass" : "message",
					"numinlets" : 2,
					"numoutlets" : 1,
					"outlettype" : [ "" ],
					"patching_rect" : [ 32.0, 175.0, 55.0, 22.0 ],
					"text" : "score $1"
				}

			}
, 			{
				"box" : 				{
					"id" : "obj-31",
					"maxclass" : "newobj",
					"numinlets" : 1,
					"numoutlets" : 2,
					"outlettype" : [ "", "float" ],
					"patching_rect" : [ 64.0, 235.0, 166.0, 22.0 ],
					"text" : "djazz_get_bangs_and_tempo"
				}

			}
, 			{
				"box" : 				{
					"id" : "obj-30",
					"maxclass" : "ezdac~",
					"numinlets" : 2,
					"numoutlets" : 0,
					"patching_rect" : [ 432.253058433532715, 946.775441586971283, 45.0, 45.0 ]
				}

			}
, 			{
				"box" : 				{
					"id" : "obj-29",
					"maxclass" : "newobj",
					"numinlets" : 1,
					"numoutlets" : 1,
					"outlettype" : [ "" ],
					"patching_rect" : [ 1457.685512183212268, 274.929905593395233, 160.0, 22.0 ],
					"text" : "v AUDIO_SCORE_FOLDER"
				}

			}
, 			{
				"box" : 				{
					"id" : "obj-27",
					"linecount" : 4,
					"maxclass" : "message",
					"numinlets" : 2,
					"numoutlets" : 1,
					"outlettype" : [ "" ],
					"patching_rect" : [ 1457.685512183212268, 338.429905593395233, 65.0, 62.0 ],
					"text" : "clear, prefix $1, populate, insert 0 \" \""
				}

			}
, 			{
				"box" : 				{
					"id" : "obj-93",
					"maxclass" : "newobj",
					"numinlets" : 1,
					"numoutlets" : 1,
					"outlettype" : [ "bang" ],
					"patcher" : 					{
						"fileversion" : 1,
						"appversion" : 						{
							"major" : 8,
							"minor" : 5,
							"revision" : 5,
							"architecture" : "x64",
							"modernui" : 1
						}
,
						"classnamespace" : "box",
						"rect" : [ -1047.0, 17.0, 762.0, 1022.0 ],
						"bglocked" : 0,
						"openinpresentation" : 0,
						"default_fontsize" : 12.0,
						"default_fontface" : 0,
						"default_fontname" : "Arial",
						"gridonopen" : 1,
						"gridsize" : [ 15.0, 15.0 ],
						"gridsnaponopen" : 1,
						"objectsnaponopen" : 1,
						"statusbarvisible" : 2,
						"toolbarvisible" : 1,
						"lefttoolbarpinned" : 0,
						"toptoolbarpinned" : 0,
						"righttoolbarpinned" : 0,
						"bottomtoolbarpinned" : 0,
						"toolbars_unpinned_last_save" : 0,
						"tallnewobj" : 0,
						"boxanimatetime" : 200,
						"enablehscroll" : 1,
						"enablevscroll" : 1,
						"devicewidth" : 0.0,
						"description" : "",
						"digest" : "",
						"tags" : "",
						"style" : "",
						"subpatcher_template" : "",
						"assistshowspatchername" : 0,
						"boxes" : [ 							{
								"box" : 								{
									"id" : "obj-4",
									"maxclass" : "newobj",
									"numinlets" : 1,
									"numoutlets" : 2,
									"outlettype" : [ "bang", "" ],
									"patching_rect" : [ 109.999999999999986, 673.0, 29.5, 22.0 ],
									"text" : "t b l"
								}

							}
, 							{
								"box" : 								{
									"id" : "obj-2",
									"maxclass" : "newobj",
									"numinlets" : 1,
									"numoutlets" : 2,
									"outlettype" : [ "int", "int" ],
									"patching_rect" : [ 94.0, 331.0, 88.0, 22.0 ],
									"text" : "t i i"
								}

							}
, 							{
								"box" : 								{
									"id" : "obj-75",
									"maxclass" : "newobj",
									"numinlets" : 2,
									"numoutlets" : 1,
									"outlettype" : [ "" ],
									"patcher" : 									{
										"fileversion" : 1,
										"appversion" : 										{
											"major" : 8,
											"minor" : 5,
											"revision" : 5,
											"architecture" : "x64",
											"modernui" : 1
										}
,
										"classnamespace" : "box",
										"rect" : [ -2788.0, -31.0, 1334.0, 881.0 ],
										"bglocked" : 0,
										"openinpresentation" : 0,
										"default_fontsize" : 12.0,
										"default_fontface" : 0,
										"default_fontname" : "Arial",
										"gridonopen" : 1,
										"gridsize" : [ 15.0, 15.0 ],
										"gridsnaponopen" : 1,
										"objectsnaponopen" : 1,
										"statusbarvisible" : 2,
										"toolbarvisible" : 1,
										"lefttoolbarpinned" : 0,
										"toptoolbarpinned" : 0,
										"righttoolbarpinned" : 0,
										"bottomtoolbarpinned" : 0,
										"toolbars_unpinned_last_save" : 0,
										"tallnewobj" : 0,
										"boxanimatetime" : 200,
										"enablehscroll" : 1,
										"enablevscroll" : 1,
										"devicewidth" : 0.0,
										"description" : "",
										"digest" : "",
										"tags" : "",
										"style" : "",
										"subpatcher_template" : "",
										"assistshowspatchername" : 0,
										"boxes" : [ 											{
												"box" : 												{
													"id" : "obj-16",
													"maxclass" : "newobj",
													"numinlets" : 1,
													"numoutlets" : 1,
													"outlettype" : [ "float" ],
													"patcher" : 													{
														"fileversion" : 1,
														"appversion" : 														{
															"major" : 8,
															"minor" : 5,
															"revision" : 5,
															"architecture" : "x64",
															"modernui" : 1
														}
,
														"classnamespace" : "box",
														"rect" : [ -1921.0, 153.0, 738.0, 944.0 ],
														"bglocked" : 0,
														"openinpresentation" : 0,
														"default_fontsize" : 12.0,
														"default_fontface" : 0,
														"default_fontname" : "Arial",
														"gridonopen" : 1,
														"gridsize" : [ 15.0, 15.0 ],
														"gridsnaponopen" : 1,
														"objectsnaponopen" : 1,
														"statusbarvisible" : 2,
														"toolbarvisible" : 1,
														"lefttoolbarpinned" : 0,
														"toptoolbarpinned" : 0,
														"righttoolbarpinned" : 0,
														"bottomtoolbarpinned" : 0,
														"toolbars_unpinned_last_save" : 0,
														"tallnewobj" : 0,
														"boxanimatetime" : 200,
														"enablehscroll" : 1,
														"enablevscroll" : 1,
														"devicewidth" : 0.0,
														"description" : "",
														"digest" : "",
														"tags" : "",
														"style" : "",
														"subpatcher_template" : "",
														"assistshowspatchername" : 0,
														"boxes" : [ 															{
																"box" : 																{
																	"id" : "obj-4",
																	"linecount" : 3,
																	"maxclass" : "message",
																	"numinlets" : 2,
																	"numoutlets" : 1,
																	"outlettype" : [ "" ],
																	"patching_rect" : [ 346.0, 595.0, 50.0, 49.0 ],
																	"text" : "4503599627370496."
																}

															}
, 															{
																"box" : 																{
																	"id" : "obj-224",
																	"maxclass" : "newobj",
																	"numinlets" : 2,
																	"numoutlets" : 1,
																	"outlettype" : [ "float" ],
																	"patching_rect" : [ 68.0, 685.0, 397.0, 22.0 ],
																	"text" : "* 1."
																}

															}
, 															{
																"box" : 																{
																	"id" : "obj-221",
																	"maxclass" : "newobj",
																	"numinlets" : 1,
																	"numoutlets" : 2,
																	"outlettype" : [ "int", "int" ],
																	"patching_rect" : [ 257.0, 442.0, 77.0, 22.0 ],
																	"text" : "t 16 i"
																}

															}
, 															{
																"box" : 																{
																	"id" : "obj-218",
																	"maxclass" : "newobj",
																	"numinlets" : 2,
																	"numoutlets" : 1,
																	"outlettype" : [ "float" ],
																	"patching_rect" : [ 257.0, 505.0, 77.0, 22.0 ],
																	"text" : "pow"
																}

															}
, 															{
																"box" : 																{
																	"id" : "obj-215",
																	"maxclass" : "newobj",
																	"numinlets" : 1,
																	"numoutlets" : 5,
																	"outlettype" : [ "", "", "", "", "" ],
																	"patching_rect" : [ 257.0, 308.0, 175.0, 22.0 ],
																	"text" : "regexp (\\\\w) @substitute \"%1  \""
																}

															}
, 															{
																"box" : 																{
																	"id" : "obj-212",
																	"maxclass" : "newobj",
																	"numinlets" : 2,
																	"numoutlets" : 2,
																	"outlettype" : [ "", "" ],
																	"patching_rect" : [ 257.0, 373.0, 37.0, 22.0 ],
																	"text" : "zl.len"
																}

															}
, 															{
																"box" : 																{
																	"id" : "obj-209",
																	"maxclass" : "newobj",
																	"numinlets" : 2,
																	"numoutlets" : 1,
																	"outlettype" : [ "float" ],
																	"patching_rect" : [ 68.0, 577.0, 208.0, 22.0 ],
																	"text" : "/ 1."
																}

															}
, 															{
																"box" : 																{
																	"id" : "obj-208",
																	"maxclass" : "newobj",
																	"numinlets" : 1,
																	"numoutlets" : 2,
																	"outlettype" : [ "bang", "int" ],
																	"patching_rect" : [ 68.0, 303.0, 67.5, 22.0 ],
																	"text" : "t b i"
																}

															}
, 															{
																"box" : 																{
																	"id" : "obj-207",
																	"maxclass" : "newobj",
																	"numinlets" : 1,
																	"numoutlets" : 2,
																	"outlettype" : [ "int", "int" ],
																	"patching_rect" : [ 446.0, 338.0, 64.5, 22.0 ],
																	"text" : "t 2 i"
																}

															}
, 															{
																"box" : 																{
																	"id" : "obj-199",
																	"maxclass" : "newobj",
																	"numinlets" : 2,
																	"numoutlets" : 1,
																	"outlettype" : [ "float" ],
																	"patching_rect" : [ 446.0, 393.0, 64.5, 22.0 ],
																	"text" : "pow"
																}

															}
, 															{
																"box" : 																{
																	"id" : "obj-198",
																	"maxclass" : "newobj",
																	"numinlets" : 1,
																	"numoutlets" : 1,
																	"outlettype" : [ "" ],
																	"patching_rect" : [ 68.0, 469.0, 71.0, 22.0 ],
																	"text" : "fromsymbol"
																}

															}
, 															{
																"box" : 																{
																	"id" : "obj-192",
																	"maxclass" : "newobj",
																	"numinlets" : 3,
																	"numoutlets" : 2,
																	"outlettype" : [ "", "" ],
																	"patching_rect" : [ 68.0, 373.0, 116.0, 22.0 ],
																	"text" : "combine 0x 0 abc"
																}

															}
, 															{
																"box" : 																{
																	"id" : "obj-176",
																	"maxclass" : "newobj",
																	"numinlets" : 1,
																	"numoutlets" : 3,
																	"outlettype" : [ "int", "", "int" ],
																	"patching_rect" : [ 68.0, 218.0, 397.0, 22.0 ],
																	"text" : "unpack 0 abc 1"
																}

															}
, 															{
																"box" : 																{
																	"id" : "obj-175",
																	"maxclass" : "newobj",
																	"numinlets" : 1,
																	"numoutlets" : 5,
																	"outlettype" : [ "", "", "", "", "" ],
																	"patching_rect" : [ 30.0, 111.0, 171.0, 22.0 ],
																	"text" : "regexp 0x(\\\\w)\\\\.(\\\\w*)p\\\\+(\\\\d+)"
																}

															}
, 															{
																"box" : 																{
																	"comment" : "symbol in C99 p-notation (hex decimal with radix 2 denoted by p±)",
																	"id" : "obj-226",
																	"index" : 1,
																	"maxclass" : "inlet",
																	"numinlets" : 0,
																	"numoutlets" : 1,
																	"outlettype" : [ "" ],
																	"patching_rect" : [ 30.0, 27.0, 30.0, 30.0 ]
																}

															}
, 															{
																"box" : 																{
																	"comment" : "decimal number (float)",
																	"id" : "obj-227",
																	"index" : 1,
																	"maxclass" : "outlet",
																	"numinlets" : 1,
																	"numoutlets" : 0,
																	"patching_rect" : [ 68.0, 797.0, 30.0, 30.0 ]
																}

															}
 ],
														"lines" : [ 															{
																"patchline" : 																{
																	"destination" : [ "obj-176", 0 ],
																	"source" : [ "obj-175", 1 ]
																}

															}
, 															{
																"patchline" : 																{
																	"destination" : [ "obj-192", 2 ],
																	"midpoints" : [ 266.5, 285.0, 174.5, 285.0 ],
																	"order" : 1,
																	"source" : [ "obj-176", 1 ],
																	"watchpoint_flags" : 5,
																	"watchpoint_id" : 74
																}

															}
, 															{
																"patchline" : 																{
																	"destination" : [ "obj-207", 0 ],
																	"source" : [ "obj-176", 2 ]
																}

															}
, 															{
																"patchline" : 																{
																	"destination" : [ "obj-208", 0 ],
																	"source" : [ "obj-176", 0 ]
																}

															}
, 															{
																"patchline" : 																{
																	"destination" : [ "obj-215", 0 ],
																	"order" : 0,
																	"source" : [ "obj-176", 1 ]
																}

															}
, 															{
																"patchline" : 																{
																	"destination" : [ "obj-198", 0 ],
																	"source" : [ "obj-192", 0 ]
																}

															}
, 															{
																"patchline" : 																{
																	"destination" : [ "obj-209", 0 ],
																	"source" : [ "obj-198", 0 ],
																	"watchpoint_flags" : 1,
																	"watchpoint_id" : 75
																}

															}
, 															{
																"patchline" : 																{
																	"destination" : [ "obj-224", 1 ],
																	"source" : [ "obj-199", 0 ],
																	"watchpoint_flags" : 1,
																	"watchpoint_id" : 76
																}

															}
, 															{
																"patchline" : 																{
																	"destination" : [ "obj-199", 1 ],
																	"source" : [ "obj-207", 1 ]
																}

															}
, 															{
																"patchline" : 																{
																	"destination" : [ "obj-199", 0 ],
																	"source" : [ "obj-207", 0 ]
																}

															}
, 															{
																"patchline" : 																{
																	"destination" : [ "obj-192", 1 ],
																	"source" : [ "obj-208", 1 ]
																}

															}
, 															{
																"patchline" : 																{
																	"destination" : [ "obj-192", 0 ],
																	"source" : [ "obj-208", 0 ]
																}

															}
, 															{
																"patchline" : 																{
																	"destination" : [ "obj-224", 0 ],
																	"source" : [ "obj-209", 0 ],
																	"watchpoint_flags" : 1,
																	"watchpoint_id" : 77
																}

															}
, 															{
																"patchline" : 																{
																	"destination" : [ "obj-221", 0 ],
																	"source" : [ "obj-212", 0 ],
																	"watchpoint_flags" : 1,
																	"watchpoint_id" : 78
																}

															}
, 															{
																"patchline" : 																{
																	"destination" : [ "obj-212", 0 ],
																	"source" : [ "obj-215", 0 ],
																	"watchpoint_flags" : 5,
																	"watchpoint_id" : 79
																}

															}
, 															{
																"patchline" : 																{
																	"destination" : [ "obj-209", 1 ],
																	"order" : 1,
																	"source" : [ "obj-218", 0 ]
																}

															}
, 															{
																"patchline" : 																{
																	"destination" : [ "obj-4", 1 ],
																	"order" : 0,
																	"source" : [ "obj-218", 0 ]
																}

															}
, 															{
																"patchline" : 																{
																	"destination" : [ "obj-218", 1 ],
																	"source" : [ "obj-221", 1 ]
																}

															}
, 															{
																"patchline" : 																{
																	"destination" : [ "obj-218", 0 ],
																	"source" : [ "obj-221", 0 ]
																}

															}
, 															{
																"patchline" : 																{
																	"destination" : [ "obj-227", 0 ],
																	"source" : [ "obj-224", 0 ]
																}

															}
, 															{
																"patchline" : 																{
																	"destination" : [ "obj-175", 0 ],
																	"source" : [ "obj-226", 0 ]
																}

															}
 ]
													}
,
													"patching_rect" : [ 280.5, 511.0, 139.0, 22.0 ],
													"saved_object_attributes" : 													{
														"description" : "",
														"digest" : "",
														"globalpatchername" : "",
														"tags" : ""
													}
,
													"text" : "p p_notation_to_decimal"
												}

											}
, 											{
												"box" : 												{
													"id" : "obj-229",
													"maxclass" : "newobj",
													"numinlets" : 1,
													"numoutlets" : 1,
													"outlettype" : [ "float" ],
													"patcher" : 													{
														"fileversion" : 1,
														"appversion" : 														{
															"major" : 8,
															"minor" : 5,
															"revision" : 5,
															"architecture" : "x64",
															"modernui" : 1
														}
,
														"classnamespace" : "box",
														"rect" : [ -1921.0, 153.0, 738.0, 944.0 ],
														"bglocked" : 0,
														"openinpresentation" : 0,
														"default_fontsize" : 12.0,
														"default_fontface" : 0,
														"default_fontname" : "Arial",
														"gridonopen" : 1,
														"gridsize" : [ 15.0, 15.0 ],
														"gridsnaponopen" : 1,
														"objectsnaponopen" : 1,
														"statusbarvisible" : 2,
														"toolbarvisible" : 1,
														"lefttoolbarpinned" : 0,
														"toptoolbarpinned" : 0,
														"righttoolbarpinned" : 0,
														"bottomtoolbarpinned" : 0,
														"toolbars_unpinned_last_save" : 0,
														"tallnewobj" : 0,
														"boxanimatetime" : 200,
														"enablehscroll" : 1,
														"enablevscroll" : 1,
														"devicewidth" : 0.0,
														"description" : "",
														"digest" : "",
														"tags" : "",
														"style" : "",
														"subpatcher_template" : "",
														"assistshowspatchername" : 0,
														"boxes" : [ 															{
																"box" : 																{
																	"id" : "obj-4",
																	"linecount" : 3,
																	"maxclass" : "message",
																	"numinlets" : 2,
																	"numoutlets" : 1,
																	"outlettype" : [ "" ],
																	"patching_rect" : [ 346.0, 595.0, 50.0, 49.0 ],
																	"text" : "4503599627370496."
																}

															}
, 															{
																"box" : 																{
																	"id" : "obj-224",
																	"maxclass" : "newobj",
																	"numinlets" : 2,
																	"numoutlets" : 1,
																	"outlettype" : [ "float" ],
																	"patching_rect" : [ 68.0, 685.0, 397.0, 22.0 ],
																	"text" : "* 1."
																}

															}
, 															{
																"box" : 																{
																	"id" : "obj-221",
																	"maxclass" : "newobj",
																	"numinlets" : 1,
																	"numoutlets" : 2,
																	"outlettype" : [ "int", "int" ],
																	"patching_rect" : [ 257.0, 442.0, 77.0, 22.0 ],
																	"text" : "t 16 i"
																}

															}
, 															{
																"box" : 																{
																	"id" : "obj-218",
																	"maxclass" : "newobj",
																	"numinlets" : 2,
																	"numoutlets" : 1,
																	"outlettype" : [ "float" ],
																	"patching_rect" : [ 257.0, 505.0, 77.0, 22.0 ],
																	"text" : "pow"
																}

															}
, 															{
																"box" : 																{
																	"id" : "obj-215",
																	"maxclass" : "newobj",
																	"numinlets" : 1,
																	"numoutlets" : 5,
																	"outlettype" : [ "", "", "", "", "" ],
																	"patching_rect" : [ 257.0, 308.0, 175.0, 22.0 ],
																	"text" : "regexp (\\\\w) @substitute \"%1  \""
																}

															}
, 															{
																"box" : 																{
																	"id" : "obj-212",
																	"maxclass" : "newobj",
																	"numinlets" : 2,
																	"numoutlets" : 2,
																	"outlettype" : [ "", "" ],
																	"patching_rect" : [ 257.0, 373.0, 37.0, 22.0 ],
																	"text" : "zl.len"
																}

															}
, 															{
																"box" : 																{
																	"id" : "obj-209",
																	"maxclass" : "newobj",
																	"numinlets" : 2,
																	"numoutlets" : 1,
																	"outlettype" : [ "float" ],
																	"patching_rect" : [ 68.0, 577.0, 208.0, 22.0 ],
																	"text" : "/ 1."
																}

															}
, 															{
																"box" : 																{
																	"id" : "obj-208",
																	"maxclass" : "newobj",
																	"numinlets" : 1,
																	"numoutlets" : 2,
																	"outlettype" : [ "bang", "int" ],
																	"patching_rect" : [ 68.0, 303.0, 67.5, 22.0 ],
																	"text" : "t b i"
																}

															}
, 															{
																"box" : 																{
																	"id" : "obj-207",
																	"maxclass" : "newobj",
																	"numinlets" : 1,
																	"numoutlets" : 2,
																	"outlettype" : [ "int", "int" ],
																	"patching_rect" : [ 446.0, 338.0, 64.5, 22.0 ],
																	"text" : "t 2 i"
																}

															}
, 															{
																"box" : 																{
																	"id" : "obj-199",
																	"maxclass" : "newobj",
																	"numinlets" : 2,
																	"numoutlets" : 1,
																	"outlettype" : [ "float" ],
																	"patching_rect" : [ 446.0, 393.0, 64.5, 22.0 ],
																	"text" : "pow"
																}

															}
, 															{
																"box" : 																{
																	"id" : "obj-198",
																	"maxclass" : "newobj",
																	"numinlets" : 1,
																	"numoutlets" : 1,
																	"outlettype" : [ "" ],
																	"patching_rect" : [ 68.0, 469.0, 71.0, 22.0 ],
																	"text" : "fromsymbol"
																}

															}
, 															{
																"box" : 																{
																	"id" : "obj-192",
																	"maxclass" : "newobj",
																	"numinlets" : 3,
																	"numoutlets" : 2,
																	"outlettype" : [ "", "" ],
																	"patching_rect" : [ 68.0, 373.0, 116.0, 22.0 ],
																	"text" : "combine 0x 0 abc"
																}

															}
, 															{
																"box" : 																{
																	"id" : "obj-176",
																	"maxclass" : "newobj",
																	"numinlets" : 1,
																	"numoutlets" : 3,
																	"outlettype" : [ "int", "", "int" ],
																	"patching_rect" : [ 68.0, 218.0, 397.0, 22.0 ],
																	"text" : "unpack 0 abc 1"
																}

															}
, 															{
																"box" : 																{
																	"id" : "obj-175",
																	"maxclass" : "newobj",
																	"numinlets" : 1,
																	"numoutlets" : 5,
																	"outlettype" : [ "", "", "", "", "" ],
																	"patching_rect" : [ 30.0, 111.0, 171.0, 22.0 ],
																	"text" : "regexp 0x(\\\\w)\\\\.(\\\\w*)p\\\\+(\\\\d+)"
																}

															}
, 															{
																"box" : 																{
																	"comment" : "symbol in C99 p-notation (hex decimal with radix 2 denoted by p±)",
																	"id" : "obj-226",
																	"index" : 1,
																	"maxclass" : "inlet",
																	"numinlets" : 0,
																	"numoutlets" : 1,
																	"outlettype" : [ "" ],
																	"patching_rect" : [ 30.0, 27.0, 30.0, 30.0 ]
																}

															}
, 															{
																"box" : 																{
																	"comment" : "decimal number (float)",
																	"id" : "obj-227",
																	"index" : 1,
																	"maxclass" : "outlet",
																	"numinlets" : 1,
																	"numoutlets" : 0,
																	"patching_rect" : [ 68.0, 797.0, 30.0, 30.0 ]
																}

															}
 ],
														"lines" : [ 															{
																"patchline" : 																{
																	"destination" : [ "obj-176", 0 ],
																	"source" : [ "obj-175", 1 ]
																}

															}
, 															{
																"patchline" : 																{
																	"destination" : [ "obj-192", 2 ],
																	"midpoints" : [ 266.5, 285.0, 174.5, 285.0 ],
																	"order" : 1,
																	"source" : [ "obj-176", 1 ],
																	"watchpoint_flags" : 5,
																	"watchpoint_id" : 80
																}

															}
, 															{
																"patchline" : 																{
																	"destination" : [ "obj-207", 0 ],
																	"source" : [ "obj-176", 2 ]
																}

															}
, 															{
																"patchline" : 																{
																	"destination" : [ "obj-208", 0 ],
																	"source" : [ "obj-176", 0 ]
																}

															}
, 															{
																"patchline" : 																{
																	"destination" : [ "obj-215", 0 ],
																	"order" : 0,
																	"source" : [ "obj-176", 1 ]
																}

															}
, 															{
																"patchline" : 																{
																	"destination" : [ "obj-198", 0 ],
																	"source" : [ "obj-192", 0 ]
																}

															}
, 															{
																"patchline" : 																{
																	"destination" : [ "obj-209", 0 ],
																	"source" : [ "obj-198", 0 ],
																	"watchpoint_flags" : 1,
																	"watchpoint_id" : 81
																}

															}
, 															{
																"patchline" : 																{
																	"destination" : [ "obj-224", 1 ],
																	"source" : [ "obj-199", 0 ],
																	"watchpoint_flags" : 1,
																	"watchpoint_id" : 82
																}

															}
, 															{
																"patchline" : 																{
																	"destination" : [ "obj-199", 1 ],
																	"source" : [ "obj-207", 1 ]
																}

															}
, 															{
																"patchline" : 																{
																	"destination" : [ "obj-199", 0 ],
																	"source" : [ "obj-207", 0 ]
																}

															}
, 															{
																"patchline" : 																{
																	"destination" : [ "obj-192", 1 ],
																	"source" : [ "obj-208", 1 ]
																}

															}
, 															{
																"patchline" : 																{
																	"destination" : [ "obj-192", 0 ],
																	"source" : [ "obj-208", 0 ]
																}

															}
, 															{
																"patchline" : 																{
																	"destination" : [ "obj-224", 0 ],
																	"source" : [ "obj-209", 0 ],
																	"watchpoint_flags" : 1,
																	"watchpoint_id" : 83
																}

															}
, 															{
																"patchline" : 																{
																	"destination" : [ "obj-221", 0 ],
																	"source" : [ "obj-212", 0 ],
																	"watchpoint_flags" : 1,
																	"watchpoint_id" : 84
																}

															}
, 															{
																"patchline" : 																{
																	"destination" : [ "obj-212", 0 ],
																	"source" : [ "obj-215", 0 ],
																	"watchpoint_flags" : 5,
																	"watchpoint_id" : 85
																}

															}
, 															{
																"patchline" : 																{
																	"destination" : [ "obj-209", 1 ],
																	"order" : 1,
																	"source" : [ "obj-218", 0 ]
																}

															}
, 															{
																"patchline" : 																{
																	"destination" : [ "obj-4", 1 ],
																	"order" : 0,
																	"source" : [ "obj-218", 0 ]
																}

															}
, 															{
																"patchline" : 																{
																	"destination" : [ "obj-218", 1 ],
																	"source" : [ "obj-221", 1 ]
																}

															}
, 															{
																"patchline" : 																{
																	"destination" : [ "obj-218", 0 ],
																	"source" : [ "obj-221", 0 ]
																}

															}
, 															{
																"patchline" : 																{
																	"destination" : [ "obj-227", 0 ],
																	"source" : [ "obj-224", 0 ]
																}

															}
, 															{
																"patchline" : 																{
																	"destination" : [ "obj-175", 0 ],
																	"source" : [ "obj-226", 0 ]
																}

															}
 ]
													}
,
													"patching_rect" : [ 488.0, 510.0, 139.0, 22.0 ],
													"saved_object_attributes" : 													{
														"description" : "",
														"digest" : "",
														"globalpatchername" : "",
														"tags" : ""
													}
,
													"text" : "p p_notation_to_decimal"
												}

											}
, 											{
												"box" : 												{
													"id" : "obj-15",
													"maxclass" : "newobj",
													"numinlets" : 1,
													"numoutlets" : 1,
													"outlettype" : [ "" ],
													"patching_rect" : [ 108.5, 665.0, 72.0, 22.0 ],
													"text" : "prepend set"
												}

											}
, 											{
												"box" : 												{
													"id" : "obj-14",
													"maxclass" : "message",
													"numinlets" : 2,
													"numoutlets" : 1,
													"outlettype" : [ "" ],
													"patching_rect" : [ 280.5, 451.0, 29.5, 22.0 ],
													"text" : "$2"
												}

											}
, 											{
												"box" : 												{
													"id" : "obj-13",
													"maxclass" : "message",
													"numinlets" : 2,
													"numoutlets" : 1,
													"outlettype" : [ "" ],
													"patching_rect" : [ 488.0, 467.0, 29.5, 22.0 ],
													"text" : "$2"
												}

											}
, 											{
												"box" : 												{
													"id" : "obj-10",
													"maxclass" : "message",
													"numinlets" : 2,
													"numoutlets" : 1,
													"outlettype" : [ "" ],
													"patching_rect" : [ 629.0, 350.714284896850586, 55.0, 22.0 ],
													"text" : "name $1"
												}

											}
, 											{
												"box" : 												{
													"comment" : "",
													"id" : "obj-8",
													"index" : 2,
													"maxclass" : "inlet",
													"numinlets" : 0,
													"numoutlets" : 1,
													"outlettype" : [ "" ],
													"patching_rect" : [ 629.0, 38.5, 30.0, 30.0 ]
												}

											}
, 											{
												"box" : 												{
													"id" : "obj-6",
													"maxclass" : "newobj",
													"numinlets" : 2,
													"numoutlets" : 4,
													"outlettype" : [ "dictionary", "", "", "" ],
													"patching_rect" : [ 270.0, 384.601047515869141, 50.5, 22.0 ],
													"saved_object_attributes" : 													{
														"embed" : 0,
														"parameter_enable" : 0,
														"parameter_mappable" : 0
													}
,
													"text" : "dict"
												}

											}
, 											{
												"box" : 												{
													"id" : "obj-5",
													"maxclass" : "newobj",
													"numinlets" : 1,
													"numoutlets" : 1,
													"outlettype" : [ "" ],
													"patching_rect" : [ 270.0, 300.214284896850586, 73.0, 22.0 ],
													"text" : "prepend get"
												}

											}
, 											{
												"box" : 												{
													"id" : "obj-3",
													"maxclass" : "newobj",
													"numinlets" : 1,
													"numoutlets" : 1,
													"outlettype" : [ "" ],
													"patching_rect" : [ 477.5, 314.714284896850586, 73.0, 22.0 ],
													"text" : "prepend get"
												}

											}
, 											{
												"box" : 												{
													"id" : "obj-2",
													"maxclass" : "newobj",
													"numinlets" : 2,
													"numoutlets" : 4,
													"outlettype" : [ "dictionary", "", "", "" ],
													"patching_rect" : [ 477.5, 400.601047515869141, 50.5, 22.0 ],
													"saved_object_attributes" : 													{
														"embed" : 0,
														"parameter_enable" : 0,
														"parameter_mappable" : 0
													}
,
													"text" : "dict"
												}

											}
, 											{
												"box" : 												{
													"comment" : "",
													"id" : "obj-1",
													"index" : 1,
													"maxclass" : "outlet",
													"numinlets" : 1,
													"numoutlets" : 0,
													"patching_rect" : [ 108.5, 743.0, 30.0, 30.0 ]
												}

											}
, 											{
												"box" : 												{
													"id" : "obj-71",
													"maxclass" : "newobj",
													"numinlets" : 1,
													"numoutlets" : 3,
													"outlettype" : [ "int", "int", "int" ],
													"patching_rect" : [ 108.5, 100.0, 433.0, 22.0 ],
													"text" : "t i i i"
												}

											}
, 											{
												"box" : 												{
													"id" : "obj-66",
													"linecount" : 2,
													"maxclass" : "newobj",
													"numinlets" : 3,
													"numoutlets" : 2,
													"outlettype" : [ "", "" ],
													"patching_rect" : [ 477.5, 201.714284896850586, 110.0, 35.0 ],
													"text" : "combine dates[ 0 ] @triggers 1"
												}

											}
, 											{
												"box" : 												{
													"id" : "obj-64",
													"maxclass" : "newobj",
													"numinlets" : 3,
													"numoutlets" : 1,
													"outlettype" : [ "" ],
													"patching_rect" : [ 108.5, 586.601047515869141, 398.5, 22.0 ],
													"text" : "pack \"0\" 0. 0."
												}

											}
, 											{
												"box" : 												{
													"id" : "obj-58",
													"maxclass" : "newobj",
													"numinlets" : 2,
													"numoutlets" : 1,
													"outlettype" : [ "int" ],
													"patching_rect" : [ 522.5, 148.5, 29.5, 22.0 ],
													"text" : "+ 1"
												}

											}
, 											{
												"box" : 												{
													"id" : "obj-57",
													"linecount" : 2,
													"maxclass" : "newobj",
													"numinlets" : 3,
													"numoutlets" : 2,
													"outlettype" : [ "", "" ],
													"patching_rect" : [ 270.0, 185.714284896850586, 110.0, 35.0 ],
													"text" : "combine dates[ 0 ] @triggers 1"
												}

											}
, 											{
												"box" : 												{
													"id" : "obj-55",
													"maxclass" : "newobj",
													"numinlets" : 1,
													"numoutlets" : 1,
													"outlettype" : [ "" ],
													"patching_rect" : [ 108.5, 350.714284896850586, 57.0, 22.0 ],
													"text" : "tosymbol"
												}

											}
, 											{
												"box" : 												{
													"comment" : "",
													"id" : "obj-74",
													"index" : 1,
													"maxclass" : "inlet",
													"numinlets" : 0,
													"numoutlets" : 1,
													"outlettype" : [ "" ],
													"patching_rect" : [ 108.5, 40.0, 30.0, 30.0 ]
												}

											}
 ],
										"lines" : [ 											{
												"patchline" : 												{
													"destination" : [ "obj-2", 0 ],
													"order" : 0,
													"source" : [ "obj-10", 0 ]
												}

											}
, 											{
												"patchline" : 												{
													"destination" : [ "obj-6", 0 ],
													"order" : 1,
													"source" : [ "obj-10", 0 ]
												}

											}
, 											{
												"patchline" : 												{
													"destination" : [ "obj-229", 0 ],
													"source" : [ "obj-13", 0 ]
												}

											}
, 											{
												"patchline" : 												{
													"destination" : [ "obj-16", 0 ],
													"source" : [ "obj-14", 0 ]
												}

											}
, 											{
												"patchline" : 												{
													"destination" : [ "obj-1", 0 ],
													"source" : [ "obj-15", 0 ]
												}

											}
, 											{
												"patchline" : 												{
													"destination" : [ "obj-64", 1 ],
													"source" : [ "obj-16", 0 ]
												}

											}
, 											{
												"patchline" : 												{
													"destination" : [ "obj-13", 0 ],
													"source" : [ "obj-2", 1 ]
												}

											}
, 											{
												"patchline" : 												{
													"destination" : [ "obj-64", 2 ],
													"source" : [ "obj-229", 0 ]
												}

											}
, 											{
												"patchline" : 												{
													"destination" : [ "obj-2", 0 ],
													"source" : [ "obj-3", 0 ]
												}

											}
, 											{
												"patchline" : 												{
													"destination" : [ "obj-6", 0 ],
													"source" : [ "obj-5", 0 ]
												}

											}
, 											{
												"patchline" : 												{
													"destination" : [ "obj-64", 0 ],
													"source" : [ "obj-55", 0 ]
												}

											}
, 											{
												"patchline" : 												{
													"destination" : [ "obj-5", 0 ],
													"source" : [ "obj-57", 0 ]
												}

											}
, 											{
												"patchline" : 												{
													"destination" : [ "obj-66", 1 ],
													"source" : [ "obj-58", 0 ]
												}

											}
, 											{
												"patchline" : 												{
													"destination" : [ "obj-14", 0 ],
													"source" : [ "obj-6", 1 ]
												}

											}
, 											{
												"patchline" : 												{
													"destination" : [ "obj-15", 0 ],
													"source" : [ "obj-64", 0 ]
												}

											}
, 											{
												"patchline" : 												{
													"destination" : [ "obj-3", 0 ],
													"source" : [ "obj-66", 0 ]
												}

											}
, 											{
												"patchline" : 												{
													"destination" : [ "obj-55", 0 ],
													"source" : [ "obj-71", 0 ]
												}

											}
, 											{
												"patchline" : 												{
													"destination" : [ "obj-57", 1 ],
													"source" : [ "obj-71", 1 ]
												}

											}
, 											{
												"patchline" : 												{
													"destination" : [ "obj-58", 0 ],
													"source" : [ "obj-71", 2 ]
												}

											}
, 											{
												"patchline" : 												{
													"destination" : [ "obj-71", 0 ],
													"source" : [ "obj-74", 0 ]
												}

											}
, 											{
												"patchline" : 												{
													"destination" : [ "obj-10", 0 ],
													"source" : [ "obj-8", 0 ]
												}

											}
 ]
									}
,
									"patching_rect" : [ 109.999999999999986, 617.0, 134.0, 22.0 ],
									"saved_object_attributes" : 									{
										"description" : "",
										"digest" : "",
										"globalpatchername" : "",
										"tags" : ""
									}
,
									"text" : "p set_times_entry"
								}

							}
, 							{
								"box" : 								{
									"id" : "obj-63",
									"maxclass" : "newobj",
									"numinlets" : 1,
									"numoutlets" : 2,
									"outlettype" : [ "int", "int" ],
									"patching_rect" : [ 109.999999999999986, 423.113244533538818, 40.5, 22.0 ],
									"text" : "t i i"
								}

							}
, 							{
								"box" : 								{
									"id" : "obj-61",
									"maxclass" : "newobj",
									"numinlets" : 2,
									"numoutlets" : 1,
									"outlettype" : [ "int" ],
									"patching_rect" : [ 164.0, 423.113244533538818, 29.5, 22.0 ],
									"text" : "- 1"
								}

							}
, 							{
								"box" : 								{
									"id" : "obj-60",
									"maxclass" : "newobj",
									"numinlets" : 2,
									"numoutlets" : 1,
									"outlettype" : [ "int" ],
									"patching_rect" : [ 131.5, 477.5, 51.5, 22.0 ],
									"text" : "<"
								}

							}
, 							{
								"box" : 								{
									"id" : "obj-59",
									"maxclass" : "gswitch2",
									"numinlets" : 2,
									"numoutlets" : 2,
									"outlettype" : [ "", "" ],
									"parameter_enable" : 0,
									"patching_rect" : [ 67.999999999999986, 549.113244533538818, 61.0, 32.0 ]
								}

							}
, 							{
								"box" : 								{
									"id" : "obj-54",
									"maxclass" : "newobj",
									"numinlets" : 2,
									"numoutlets" : 3,
									"outlettype" : [ "bang", "bang", "int" ],
									"patching_rect" : [ 94.0, 375.0, 34.0, 22.0 ],
									"text" : "uzi"
								}

							}
, 							{
								"box" : 								{
									"id" : "obj-53",
									"maxclass" : "newobj",
									"numinlets" : 2,
									"numoutlets" : 2,
									"outlettype" : [ "", "" ],
									"patching_rect" : [ 94.0, 283.0, 69.0, 22.0 ],
									"text" : "route dates"
								}

							}
, 							{
								"box" : 								{
									"id" : "obj-50",
									"maxclass" : "message",
									"numinlets" : 2,
									"numoutlets" : 1,
									"outlettype" : [ "" ],
									"patching_rect" : [ 155.096802000000025, 182.0, 55.0, 22.0 ],
									"text" : "name $1"
								}

							}
, 							{
								"box" : 								{
									"id" : "obj-48",
									"maxclass" : "newobj",
									"numinlets" : 1,
									"numoutlets" : 2,
									"outlettype" : [ "bang", "" ],
									"patching_rect" : [ 50.0, 100.0, 194.0, 22.0 ],
									"text" : "t b s"
								}

							}
, 							{
								"box" : 								{
									"id" : "obj-47",
									"maxclass" : "newobj",
									"numinlets" : 2,
									"numoutlets" : 4,
									"outlettype" : [ "dictionary", "", "", "" ],
									"patching_rect" : [ 83.5, 239.675153851509094, 50.5, 22.0 ],
									"saved_object_attributes" : 									{
										"embed" : 0,
										"parameter_enable" : 0,
										"parameter_mappable" : 0
									}
,
									"text" : "dict"
								}

							}
, 							{
								"box" : 								{
									"id" : "obj-46",
									"maxclass" : "message",
									"numinlets" : 2,
									"numoutlets" : 1,
									"outlettype" : [ "" ],
									"patching_rect" : [ 50.0, 182.0, 79.0, 22.0 ],
									"text" : "getsize dates"
								}

							}
, 							{
								"box" : 								{
									"comment" : "",
									"id" : "obj-90",
									"index" : 1,
									"maxclass" : "inlet",
									"numinlets" : 0,
									"numoutlets" : 1,
									"outlettype" : [ "" ],
									"patching_rect" : [ 50.0, 40.0, 30.0, 30.0 ]
								}

							}
, 							{
								"box" : 								{
									"comment" : "",
									"id" : "obj-91",
									"index" : 1,
									"maxclass" : "outlet",
									"numinlets" : 1,
									"numoutlets" : 0,
									"patching_rect" : [ 109.999999999999986, 729.0, 30.0, 30.0 ]
								}

							}
 ],
						"lines" : [ 							{
								"patchline" : 								{
									"destination" : [ "obj-54", 0 ],
									"source" : [ "obj-2", 0 ]
								}

							}
, 							{
								"patchline" : 								{
									"destination" : [ "obj-61", 0 ],
									"source" : [ "obj-2", 1 ]
								}

							}
, 							{
								"patchline" : 								{
									"destination" : [ "obj-91", 0 ],
									"source" : [ "obj-4", 1 ]
								}

							}
, 							{
								"patchline" : 								{
									"destination" : [ "obj-91", 0 ],
									"source" : [ "obj-4", 0 ]
								}

							}
, 							{
								"patchline" : 								{
									"destination" : [ "obj-47", 0 ],
									"source" : [ "obj-46", 0 ]
								}

							}
, 							{
								"patchline" : 								{
									"destination" : [ "obj-53", 0 ],
									"source" : [ "obj-47", 1 ]
								}

							}
, 							{
								"patchline" : 								{
									"destination" : [ "obj-46", 0 ],
									"source" : [ "obj-48", 0 ]
								}

							}
, 							{
								"patchline" : 								{
									"destination" : [ "obj-50", 0 ],
									"order" : 1,
									"source" : [ "obj-48", 1 ]
								}

							}
, 							{
								"patchline" : 								{
									"destination" : [ "obj-75", 1 ],
									"order" : 0,
									"source" : [ "obj-48", 1 ]
								}

							}
, 							{
								"patchline" : 								{
									"destination" : [ "obj-47", 0 ],
									"source" : [ "obj-50", 0 ]
								}

							}
, 							{
								"patchline" : 								{
									"destination" : [ "obj-2", 0 ],
									"source" : [ "obj-53", 0 ]
								}

							}
, 							{
								"patchline" : 								{
									"destination" : [ "obj-63", 0 ],
									"source" : [ "obj-54", 2 ]
								}

							}
, 							{
								"patchline" : 								{
									"destination" : [ "obj-75", 0 ],
									"source" : [ "obj-59", 1 ]
								}

							}
, 							{
								"patchline" : 								{
									"destination" : [ "obj-59", 0 ],
									"source" : [ "obj-60", 0 ]
								}

							}
, 							{
								"patchline" : 								{
									"destination" : [ "obj-60", 1 ],
									"source" : [ "obj-61", 0 ]
								}

							}
, 							{
								"patchline" : 								{
									"destination" : [ "obj-59", 1 ],
									"source" : [ "obj-63", 0 ]
								}

							}
, 							{
								"patchline" : 								{
									"destination" : [ "obj-60", 0 ],
									"source" : [ "obj-63", 1 ]
								}

							}
, 							{
								"patchline" : 								{
									"destination" : [ "obj-4", 0 ],
									"source" : [ "obj-75", 0 ]
								}

							}
, 							{
								"patchline" : 								{
									"destination" : [ "obj-48", 0 ],
									"source" : [ "obj-90", 0 ]
								}

							}
 ]
					}
,
					"patching_rect" : [ 2204.854900945297231, 708.527314166027054, 148.0, 22.0 ],
					"saved_object_attributes" : 					{
						"description" : "",
						"digest" : "",
						"globalpatchername" : "",
						"tags" : ""
					}
,
					"text" : "p make_on_off_times_dict"
				}

			}
, 			{
				"box" : 				{
					"id" : "obj-25",
					"maxclass" : "button",
					"numinlets" : 1,
					"numoutlets" : 1,
					"outlettype" : [ "bang" ],
					"parameter_enable" : 0,
					"patching_rect" : [ 17.451598999999987, 824.0, 24.0, 24.0 ]
				}

			}
, 			{
				"box" : 				{
					"id" : "obj-275",
					"linecount" : 2,
					"maxclass" : "newobj",
					"numinlets" : 1,
					"numoutlets" : 1,
					"outlettype" : [ "" ],
					"patching_rect" : [ 17.451598999999987, 879.5, 298.0, 35.0 ],
					"text" : "v AUDIO_SCORE_FOLDER /Users/danielbrown/Desktop/djazz_media/djazz_audio"
				}

			}
, 			{
				"box" : 				{
					"id" : "obj-101",
					"maxclass" : "newobj",
					"numinlets" : 1,
					"numoutlets" : 1,
					"outlettype" : [ "" ],
					"patcher" : 					{
						"fileversion" : 1,
						"appversion" : 						{
							"major" : 8,
							"minor" : 5,
							"revision" : 5,
							"architecture" : "x64",
							"modernui" : 1
						}
,
						"classnamespace" : "box",
						"rect" : [ -924.0, 197.0, 805.0, 751.0 ],
						"bglocked" : 0,
						"openinpresentation" : 0,
						"default_fontsize" : 12.0,
						"default_fontface" : 0,
						"default_fontname" : "Arial",
						"gridonopen" : 1,
						"gridsize" : [ 15.0, 15.0 ],
						"gridsnaponopen" : 1,
						"objectsnaponopen" : 1,
						"statusbarvisible" : 2,
						"toolbarvisible" : 1,
						"lefttoolbarpinned" : 0,
						"toptoolbarpinned" : 0,
						"righttoolbarpinned" : 0,
						"bottomtoolbarpinned" : 0,
						"toolbars_unpinned_last_save" : 0,
						"tallnewobj" : 0,
						"boxanimatetime" : 200,
						"enablehscroll" : 1,
						"enablevscroll" : 1,
						"devicewidth" : 0.0,
						"description" : "",
						"digest" : "",
						"tags" : "",
						"style" : "",
						"subpatcher_template" : "",
						"assistshowspatchername" : 0,
						"boxes" : [ 							{
								"box" : 								{
									"id" : "obj-3",
									"maxclass" : "newobj",
									"numinlets" : 2,
									"numoutlets" : 2,
									"outlettype" : [ "", "" ],
									"patching_rect" : [ 96.5, 544.0, 91.0, 22.0 ],
									"text" : "route dictionary"
								}

							}
, 							{
								"box" : 								{
									"id" : "obj-4",
									"maxclass" : "message",
									"numinlets" : 2,
									"numoutlets" : 1,
									"outlettype" : [ "" ],
									"patching_rect" : [ 170.0, 283.0, 55.0, 22.0 ],
									"text" : "name $1"
								}

							}
, 							{
								"box" : 								{
									"id" : "obj-2",
									"maxclass" : "newobj",
									"numinlets" : 1,
									"numoutlets" : 1,
									"outlettype" : [ "" ],
									"patching_rect" : [ 161.0, 207.0, 102.0, 22.0 ],
									"text" : "pv AUDIO_FILES"
								}

							}
, 							{
								"box" : 								{
									"id" : "obj-1",
									"maxclass" : "newobj",
									"numinlets" : 1,
									"numoutlets" : 2,
									"outlettype" : [ "", "bang" ],
									"patching_rect" : [ 50.0, 111.0, 130.0, 22.0 ],
									"text" : "t s b"
								}

							}
, 							{
								"box" : 								{
									"id" : "obj-32",
									"maxclass" : "newobj",
									"numinlets" : 2,
									"numoutlets" : 2,
									"outlettype" : [ "", "" ],
									"patching_rect" : [ 60.5, 475.0, 55.0, 22.0 ],
									"text" : "zl.slice 1"
								}

							}
, 							{
								"box" : 								{
									"id" : "obj-26",
									"maxclass" : "newobj",
									"numinlets" : 2,
									"numoutlets" : 4,
									"outlettype" : [ "dictionary", "", "", "" ],
									"patching_rect" : [ 50.0, 413.762364387512207, 50.5, 22.0 ],
									"saved_object_attributes" : 									{
										"embed" : 0,
										"parameter_enable" : 0,
										"parameter_mappable" : 0
									}
,
									"text" : "dict"
								}

							}
, 							{
								"box" : 								{
									"id" : "obj-25",
									"maxclass" : "message",
									"numinlets" : 2,
									"numoutlets" : 1,
									"outlettype" : [ "" ],
									"patching_rect" : [ 44.0, 295.0, 42.0, 22.0 ],
									"text" : "get $1"
								}

							}
, 							{
								"box" : 								{
									"comment" : "",
									"id" : "obj-98",
									"index" : 1,
									"maxclass" : "inlet",
									"numinlets" : 0,
									"numoutlets" : 1,
									"outlettype" : [ "" ],
									"patching_rect" : [ 50.0, 40.0, 30.0, 30.0 ]
								}

							}
, 							{
								"box" : 								{
									"comment" : "",
									"id" : "obj-100",
									"index" : 1,
									"maxclass" : "outlet",
									"numinlets" : 1,
									"numoutlets" : 0,
									"patching_rect" : [ 96.5, 624.0, 30.0, 30.0 ]
								}

							}
 ],
						"lines" : [ 							{
								"patchline" : 								{
									"destination" : [ "obj-2", 0 ],
									"source" : [ "obj-1", 1 ]
								}

							}
, 							{
								"patchline" : 								{
									"destination" : [ "obj-25", 0 ],
									"source" : [ "obj-1", 0 ]
								}

							}
, 							{
								"patchline" : 								{
									"destination" : [ "obj-4", 0 ],
									"source" : [ "obj-2", 0 ]
								}

							}
, 							{
								"patchline" : 								{
									"destination" : [ "obj-26", 0 ],
									"source" : [ "obj-25", 0 ]
								}

							}
, 							{
								"patchline" : 								{
									"destination" : [ "obj-32", 0 ],
									"source" : [ "obj-26", 1 ]
								}

							}
, 							{
								"patchline" : 								{
									"destination" : [ "obj-100", 0 ],
									"source" : [ "obj-3", 0 ]
								}

							}
, 							{
								"patchline" : 								{
									"destination" : [ "obj-3", 0 ],
									"source" : [ "obj-32", 1 ]
								}

							}
, 							{
								"patchline" : 								{
									"destination" : [ "obj-26", 0 ],
									"source" : [ "obj-4", 0 ]
								}

							}
, 							{
								"patchline" : 								{
									"destination" : [ "obj-1", 0 ],
									"source" : [ "obj-98", 0 ]
								}

							}
 ]
					}
,
					"patching_rect" : [ 2334.185512183212268, 680.429905593395233, 83.0, 22.0 ],
					"saved_object_attributes" : 					{
						"description" : "",
						"digest" : "",
						"globalpatchername" : "",
						"tags" : ""
					}
,
					"text" : "p get_dict"
				}

			}
, 			{
				"box" : 				{
					"id" : "obj-20",
					"items" : [ ",", "Free4_2022.12.15-10-56-00", ",", "Free4_2022.12.15-10-57-31", ",", "Free4_2022.12.15-11-02-06", ",", "Free4_2023.03.13-11-23-45", ",", "Free4_2023.03.13-12-26-15", ",", "Free4_2023.03.13-12-29-43", ",", "Free4_2023.03.13-12-41-07", ",", "Free4_2023.00.00-23-49-38", ",", "Free4_2023.00.00-23-21-38", ",", "Free4_2023.10.13-23-23-36", ",", "Free4_2023.10.13-23-27-59", ",", "Free4_2023.10.14-00-13-32", ",", "Free4_2023.10.17-12-41-41", ",", "Free4_2023.10.17-14-56-51", ",", "Free4_2023.10.17-16-11-30", ",", "Free4_2023.10.17-16-12-23", ",", "Free4_2023.00.00-11-11-06", ",", "Free4_2023.11.25-11-13-01", ",", "Free4_2023.11.25-11-16-09", ",", "Free4_2023.00.00-11-55-26", ",", "Free4_2023.11.25-12-01-08", ",", "Free4_2023.11.25-12-01-39", ",", "Free4_2023.11.25-12-04-29", ",", "Free4_2023.11.25-12-06-11", ",", "Free4_2023.11.25-12-08-29", ",", "Free4_2023.00.00-11-14-32", ",", "Free4_2023.12.02-11-29-28", ",", "Free4_2023.12.02-11-33-14", ",", "Free4_2023.12.02-11-50-12", ",", "Free4_2023.12.02-11-50-52", ",", "Free4_2023.00.00-12-28-52", ",", "Free4_2023.12.06-12-35-26", ",", "Free4_2023.00.00-14-26-55", ",", "Free4_2023.12.06-14-32-50", ",", "Free4_2023.12.06-14-38-04", ",", "Free4_2023.12.06-14-41-42", ",", "Free4_2023.12.06-14-46-45", ",", "Free4_2023.12.06-14-55-51", ",", "Free4_2023.12.06-15-01-26", ",", "Free4_2023.12.06-15-14-25" ],
					"maxclass" : "umenu",
					"numinlets" : 1,
					"numoutlets" : 3,
					"outlettype" : [ "int", "", "" ],
					"parameter_enable" : 0,
					"patching_rect" : [ 1983.685512183212268, 430.429905593395233, 212.0, 22.0 ]
				}

			}
, 			{
				"box" : 				{
					"id" : "obj-19",
					"items" : [ ",", "Free4_2022.12.15-10-56-00", ",", "Free4_2022.12.15-10-57-31", ",", "Free4_2022.12.15-11-02-06", ",", "Free4_2023.03.13-11-23-45", ",", "Free4_2023.03.13-12-26-15", ",", "Free4_2023.03.13-12-29-43", ",", "Free4_2023.03.13-12-41-07", ",", "Free4_2023.00.00-23-49-38", ",", "Free4_2023.00.00-23-21-38", ",", "Free4_2023.10.13-23-23-36", ",", "Free4_2023.10.13-23-27-59", ",", "Free4_2023.10.14-00-13-32", ",", "Free4_2023.10.17-12-41-41", ",", "Free4_2023.10.17-14-56-51", ",", "Free4_2023.10.17-16-11-30", ",", "Free4_2023.10.17-16-12-23", ",", "Free4_2023.00.00-11-11-06", ",", "Free4_2023.11.25-11-13-01", ",", "Free4_2023.11.25-11-16-09", ",", "Free4_2023.00.00-11-55-26", ",", "Free4_2023.11.25-12-01-08", ",", "Free4_2023.11.25-12-01-39", ",", "Free4_2023.11.25-12-04-29", ",", "Free4_2023.11.25-12-06-11", ",", "Free4_2023.11.25-12-08-29", ",", "Free4_2023.00.00-11-14-32", ",", "Free4_2023.12.02-11-29-28", ",", "Free4_2023.12.02-11-33-14", ",", "Free4_2023.12.02-11-50-12", ",", "Free4_2023.12.02-11-50-52", ",", "Free4_2023.00.00-12-28-52", ",", "Free4_2023.12.06-12-35-26", ",", "Free4_2023.00.00-14-26-55", ",", "Free4_2023.12.06-14-32-50", ",", "Free4_2023.12.06-14-38-04", ",", "Free4_2023.12.06-14-41-42", ",", "Free4_2023.12.06-14-46-45", ",", "Free4_2023.12.06-14-55-51", ",", "Free4_2023.12.06-15-01-26", ",", "Free4_2023.12.06-15-14-25" ],
					"maxclass" : "umenu",
					"numinlets" : 1,
					"numoutlets" : 3,
					"outlettype" : [ "int", "", "" ],
					"parameter_enable" : 0,
					"patching_rect" : [ 1731.685512183212268, 430.429905593395233, 212.0, 22.0 ]
				}

			}
, 			{
				"box" : 				{
					"id" : "obj-3",
					"items" : [ " ", ",", "Free4_2022.12.15-10-56-00.json", ",", "Free4_2022.12.15-10-57-31.json", ",", "Free4_2022.12.15-11-02-06.json", ",", "Free4_2023.00.00-11-11-06.json", ",", "Free4_2023.00.00-11-14-32.json", ",", "Free4_2023.00.00-11-55-26.json", ",", "Free4_2023.00.00-12-28-52.json", ",", "Free4_2023.00.00-14-26-55.json", ",", "Free4_2023.00.00-23-21-38.json", ",", "Free4_2023.00.00-23-49-38.json", ",", "Free4_2023.03.13-11-23-45.json", ",", "Free4_2023.03.13-12-26-15.json", ",", "Free4_2023.03.13-12-29-43.json", ",", "Free4_2023.03.13-12-41-07.json", ",", "Free4_2023.10.13-23-23-36.json", ",", "Free4_2023.10.13-23-27-59.json", ",", "Free4_2023.10.14-00-13-32.json", ",", "Free4_2023.10.17-12-41-41.json", ",", "Free4_2023.10.17-14-56-51.json", ",", "Free4_2023.10.17-16-11-30.json", ",", "Free4_2023.10.17-16-12-23.json", ",", "Free4_2023.11.25-11-13-01.json", ",", "Free4_2023.11.25-11-16-09.json", ",", "Free4_2023.11.25-12-01-08.json", ",", "Free4_2023.11.25-12-01-39.json", ",", "Free4_2023.11.25-12-04-29.json", ",", "Free4_2023.11.25-12-06-11.json", ",", "Free4_2023.11.25-12-08-29.json", ",", "Free4_2023.12.02-11-29-28.json", ",", "Free4_2023.12.02-11-33-14.json", ",", "Free4_2023.12.02-11-50-12.json", ",", "Free4_2023.12.02-11-50-52.json", ",", "Free4_2023.12.06-12-35-26.json", ",", "Free4_2023.12.06-14-32-50.json", ",", "Free4_2023.12.06-14-38-04.json", ",", "Free4_2023.12.06-14-41-42.json", ",", "Free4_2023.12.06-14-46-45.json", ",", "Free4_2023.12.06-14-55-51.json", ",", "Free4_2023.12.06-15-01-26.json", ",", "Free4_2023.12.06-15-14-25.json" ],
					"maxclass" : "umenu",
					"numinlets" : 1,
					"numoutlets" : 3,
					"outlettype" : [ "int", "", "" ],
					"parameter_enable" : 0,
					"patching_rect" : [ 1457.685512183212268, 430.429905593395233, 212.0, 22.0 ],
					"prefix" : "~/Desktop/djazz_media/djazz_audio/"
				}

			}
, 			{
				"box" : 				{
					"id" : "obj-269",
					"maxclass" : "button",
					"numinlets" : 1,
					"numoutlets" : 1,
					"outlettype" : [ "bang" ],
					"parameter_enable" : 0,
					"patching_rect" : [ 1457.685512183212268, 186.429905593395233, 24.0, 24.0 ]
				}

			}
, 			{
				"box" : 				{
					"id" : "obj-10",
					"maxclass" : "newobj",
					"numinlets" : 2,
					"numoutlets" : 1,
					"outlettype" : [ "signal" ],
					"patching_rect" : [ 432.253058433532715, 833.775441586971283, 111.0, 22.0 ],
					"text" : "djazz_audio_play 1"
				}

			}
, 			{
				"box" : 				{
					"id" : "obj-9",
					"maxclass" : "message",
					"numinlets" : 2,
					"numoutlets" : 1,
					"outlettype" : [ "" ],
					"patching_rect" : [ 368.542053699493408, 476.541796147823334, 39.0, 22.0 ],
					"text" : "$1 $3"
				}

			}
, 			{
				"box" : 				{
					"id" : "obj-7",
					"maxclass" : "newobj",
					"numinlets" : 2,
					"numoutlets" : 1,
					"outlettype" : [ "int" ],
					"patching_rect" : [ 432.253058433532715, 524.541796147823334, 29.5, 22.0 ],
					"text" : "+ 1"
				}

			}
, 			{
				"box" : 				{
					"id" : "obj-6",
					"maxclass" : "message",
					"numinlets" : 2,
					"numoutlets" : 1,
					"outlettype" : [ "" ],
					"patching_rect" : [ 432.253058433532715, 476.541796147823334, 29.5, 22.0 ],
					"text" : "$2"
				}

			}
, 			{
				"box" : 				{
					"id" : "obj-2",
					"maxclass" : "newobj",
					"numinlets" : 2,
					"numoutlets" : 3,
					"outlettype" : [ "", "", "" ],
					"patching_rect" : [ 432.253058433532715, 596.541796147823334, 283.0, 22.0 ],
					"text" : "gate 3"
				}

			}
, 			{
				"box" : 				{
					"id" : "obj-14",
					"maxclass" : "message",
					"numinlets" : 2,
					"numoutlets" : 1,
					"outlettype" : [ "" ],
					"patching_rect" : [ 488.193414688110352, 307.385840117931366, 50.0, 22.0 ],
					"text" : "24 0 1"
				}

			}
, 			{
				"box" : 				{
					"columns" : 32,
					"id" : "obj-12",
					"maxclass" : "matrixctrl",
					"numinlets" : 1,
					"numoutlets" : 2,
					"one/matrix" : 1,
					"outlettype" : [ "list", "list" ],
					"parameter_enable" : 0,
					"patching_rect" : [ 545.606259107589722, 120.760181128978729, 651.0, 100.0 ],
					"rows" : 3
				}

			}
 ],
		"lines" : [ 			{
				"patchline" : 				{
					"destination" : [ "obj-30", 0 ],
					"source" : [ "obj-10", 0 ]
				}

			}
, 			{
				"patchline" : 				{
					"destination" : [ "obj-54", 2 ],
					"source" : [ "obj-106", 0 ]
				}

			}
, 			{
				"patchline" : 				{
					"destination" : [ "obj-54", 2 ],
					"source" : [ "obj-108", 0 ]
				}

			}
, 			{
				"patchline" : 				{
					"destination" : [ "obj-54", 1 ],
					"order" : 1,
					"source" : [ "obj-12", 0 ]
				}

			}
, 			{
				"patchline" : 				{
					"destination" : [ "obj-86", 1 ],
					"order" : 0,
					"source" : [ "obj-12", 0 ]
				}

			}
, 			{
				"patchline" : 				{
					"destination" : [ "obj-58", 0 ],
					"source" : [ "obj-2", 0 ]
				}

			}
, 			{
				"patchline" : 				{
					"destination" : [ "obj-275", 0 ],
					"source" : [ "obj-25", 0 ]
				}

			}
, 			{
				"patchline" : 				{
					"destination" : [ "obj-29", 0 ],
					"source" : [ "obj-269", 0 ]
				}

			}
, 			{
				"patchline" : 				{
					"destination" : [ "obj-19", 0 ],
					"order" : 1,
					"source" : [ "obj-27", 0 ]
				}

			}
, 			{
				"patchline" : 				{
					"destination" : [ "obj-20", 0 ],
					"order" : 0,
					"source" : [ "obj-27", 0 ]
				}

			}
, 			{
				"patchline" : 				{
					"destination" : [ "obj-3", 0 ],
					"order" : 2,
					"source" : [ "obj-27", 0 ]
				}

			}
, 			{
				"patchline" : 				{
					"destination" : [ "obj-27", 0 ],
					"source" : [ "obj-29", 0 ]
				}

			}
, 			{
				"patchline" : 				{
					"destination" : [ "obj-10", 1 ],
					"source" : [ "obj-3", 1 ]
				}

			}
, 			{
				"patchline" : 				{
					"destination" : [ "obj-40", 0 ],
					"source" : [ "obj-31", 1 ]
				}

			}
, 			{
				"patchline" : 				{
					"destination" : [ "obj-31", 0 ],
					"source" : [ "obj-33", 0 ]
				}

			}
, 			{
				"patchline" : 				{
					"destination" : [ "obj-33", 0 ],
					"source" : [ "obj-34", 0 ]
				}

			}
, 			{
				"patchline" : 				{
					"destination" : [ "obj-34", 0 ],
					"source" : [ "obj-36", 0 ]
				}

			}
, 			{
				"patchline" : 				{
					"destination" : [ "obj-31", 0 ],
					"source" : [ "obj-38", 0 ]
				}

			}
, 			{
				"patchline" : 				{
					"destination" : [ "obj-54", 2 ],
					"source" : [ "obj-43", 0 ]
				}

			}
, 			{
				"patchline" : 				{
					"destination" : [ "obj-52", 0 ],
					"order" : 1,
					"source" : [ "obj-48", 0 ]
				}

			}
, 			{
				"patchline" : 				{
					"destination" : [ "obj-87", 0 ],
					"order" : 2,
					"source" : [ "obj-48", 0 ]
				}

			}
, 			{
				"patchline" : 				{
					"destination" : [ "obj-89", 0 ],
					"order" : 0,
					"source" : [ "obj-48", 0 ]
				}

			}
, 			{
				"patchline" : 				{
					"destination" : [ "obj-54", 0 ],
					"source" : [ "obj-52", 0 ]
				}

			}
, 			{
				"patchline" : 				{
					"destination" : [ "obj-87", 1 ],
					"source" : [ "obj-54", 0 ]
				}

			}
, 			{
				"patchline" : 				{
					"destination" : [ "obj-10", 0 ],
					"source" : [ "obj-55", 1 ]
				}

			}
, 			{
				"patchline" : 				{
					"destination" : [ "obj-55", 0 ],
					"source" : [ "obj-58", 1 ]
				}

			}
, 			{
				"patchline" : 				{
					"destination" : [ "obj-55", 1 ],
					"source" : [ "obj-58", 0 ]
				}

			}
, 			{
				"patchline" : 				{
					"destination" : [ "obj-7", 0 ],
					"source" : [ "obj-6", 0 ]
				}

			}
, 			{
				"patchline" : 				{
					"destination" : [ "obj-86", 0 ],
					"source" : [ "obj-61", 0 ]
				}

			}
, 			{
				"patchline" : 				{
					"destination" : [ "obj-2", 0 ],
					"source" : [ "obj-7", 0 ]
				}

			}
, 			{
				"patchline" : 				{
					"destination" : [ "obj-12", 0 ],
					"source" : [ "obj-86", 0 ]
				}

			}
, 			{
				"patchline" : 				{
					"destination" : [ "obj-14", 1 ],
					"order" : 0,
					"source" : [ "obj-87", 1 ]
				}

			}
, 			{
				"patchline" : 				{
					"destination" : [ "obj-88", 0 ],
					"order" : 1,
					"source" : [ "obj-87", 1 ]
				}

			}
, 			{
				"patchline" : 				{
					"destination" : [ "obj-6", 0 ],
					"source" : [ "obj-88", 1 ]
				}

			}
, 			{
				"patchline" : 				{
					"destination" : [ "obj-9", 0 ],
					"source" : [ "obj-88", 0 ]
				}

			}
, 			{
				"patchline" : 				{
					"destination" : [ "obj-91", 0 ],
					"source" : [ "obj-89", 0 ]
				}

			}
, 			{
				"patchline" : 				{
					"destination" : [ "obj-2", 1 ],
					"source" : [ "obj-9", 0 ]
				}

			}
, 			{
				"patchline" : 				{
					"destination" : [ "obj-14", 0 ],
					"source" : [ "obj-91", 0 ]
				}

			}
 ],
		"parameters" : 		{
			"obj-10::obj-320" : [ "gain~", "gain~", 0 ],
			"parameterbanks" : 			{
				"0" : 				{
					"index" : 0,
					"name" : "",
					"parameters" : [ "-", "-", "-", "-", "-", "-", "-", "-" ]
				}

			}
,
			"inherited_shortname" : 1
		}
,
		"dependency_cache" : [ 			{
				"name" : "antescofo~.mxo",
				"type" : "iLaX"
			}
, 			{
				"name" : "djazz_audio_play.maxpat",
				"bootpath" : "~/Documents/Max 8/Projects/djazz_db/patchers",
				"patcherrelativepath" : "..",
				"type" : "JSON",
				"implicit" : 1
			}
, 			{
				"name" : "djazz_get_bangs_and_tempo.maxpat",
				"bootpath" : "~/Documents/Max 8/Projects/djazz_db/patchers/audio_record_play",
				"patcherrelativepath" : ".",
				"type" : "JSON",
				"implicit" : 1
			}
, 			{
				"name" : "djazz_play_beat.maxpat",
				"bootpath" : "~/Documents/Max 8/Projects/djazz_db/patchers",
				"patcherrelativepath" : "..",
				"type" : "JSON",
				"implicit" : 1
			}
, 			{
				"name" : "djazz_tempo_to_ms.maxpat",
				"bootpath" : "~/Documents/Max 8/Projects/djazz_db/patchers/tools",
				"patcherrelativepath" : "../tools",
				"type" : "JSON",
				"implicit" : 1
			}
, 			{
				"name" : "supervp.scrub~.mxo",
				"type" : "iLaX"
			}
 ],
		"autosave" : 0
	}

}
