{
	"patcher" : 	{
		"fileversion" : 1,
		"appversion" : 		{
			"major" : 8,
			"minor" : 5,
			"revision" : 4,
			"architecture" : "x64",
			"modernui" : 1
		}
,
		"classnamespace" : "box",
		"rect" : [ 73.0, 148.0, 1574.0, 935.0 ],
		"bglocked" : 0,
		"openinpresentation" : 1,
		"default_fontsize" : 12.0,
		"default_fontface" : 0,
		"default_fontname" : "Arial",
		"gridonopen" : 1,
		"gridsize" : [ 15.0, 15.0 ],
		"gridsnaponopen" : 1,
		"objectsnaponopen" : 1,
		"statusbarvisible" : 2,
		"toolbarvisible" : 1,
		"lefttoolbarpinned" : 0,
		"toptoolbarpinned" : 0,
		"righttoolbarpinned" : 0,
		"bottomtoolbarpinned" : 0,
		"toolbars_unpinned_last_save" : 0,
		"tallnewobj" : 0,
		"boxanimatetime" : 200,
		"enablehscroll" : 1,
		"enablevscroll" : 1,
		"devicewidth" : 0.0,
		"description" : "",
		"digest" : "",
		"tags" : "",
		"style" : "",
		"subpatcher_template" : "",
		"assistshowspatchername" : 0,
		"boxes" : [ 			{
				"box" : 				{
					"id" : "obj-33",
					"maxclass" : "newobj",
					"numinlets" : 1,
					"numoutlets" : 1,
					"outlettype" : [ "" ],
					"patcher" : 					{
						"fileversion" : 1,
						"appversion" : 						{
							"major" : 8,
							"minor" : 5,
							"revision" : 4,
							"architecture" : "x64",
							"modernui" : 1
						}
,
						"classnamespace" : "box",
						"rect" : [ 59.0, 119.0, 804.0, 893.0 ],
						"bglocked" : 0,
						"openinpresentation" : 0,
						"default_fontsize" : 12.0,
						"default_fontface" : 0,
						"default_fontname" : "Arial",
						"gridonopen" : 1,
						"gridsize" : [ 15.0, 15.0 ],
						"gridsnaponopen" : 1,
						"objectsnaponopen" : 1,
						"statusbarvisible" : 2,
						"toolbarvisible" : 1,
						"lefttoolbarpinned" : 0,
						"toptoolbarpinned" : 0,
						"righttoolbarpinned" : 0,
						"bottomtoolbarpinned" : 0,
						"toolbars_unpinned_last_save" : 0,
						"tallnewobj" : 0,
						"boxanimatetime" : 200,
						"enablehscroll" : 1,
						"enablevscroll" : 1,
						"devicewidth" : 0.0,
						"description" : "",
						"digest" : "",
						"tags" : "",
						"style" : "",
						"subpatcher_template" : "",
						"assistshowspatchername" : 0,
						"visible" : 1,
						"boxes" : [ 							{
								"box" : 								{
									"id" : "obj-13",
									"maxclass" : "newobj",
									"numinlets" : 1,
									"numoutlets" : 1,
									"outlettype" : [ "" ],
									"patcher" : 									{
										"fileversion" : 1,
										"appversion" : 										{
											"major" : 8,
											"minor" : 5,
											"revision" : 4,
											"architecture" : "x64",
											"modernui" : 1
										}
,
										"classnamespace" : "box",
										"rect" : [ 0.0, 0.0, 640.0, 480.0 ],
										"bglocked" : 0,
										"openinpresentation" : 0,
										"default_fontsize" : 12.0,
										"default_fontface" : 0,
										"default_fontname" : "Arial",
										"gridonopen" : 1,
										"gridsize" : [ 15.0, 15.0 ],
										"gridsnaponopen" : 1,
										"objectsnaponopen" : 1,
										"statusbarvisible" : 2,
										"toolbarvisible" : 1,
										"lefttoolbarpinned" : 0,
										"toptoolbarpinned" : 0,
										"righttoolbarpinned" : 0,
										"bottomtoolbarpinned" : 0,
										"toolbars_unpinned_last_save" : 0,
										"tallnewobj" : 0,
										"boxanimatetime" : 200,
										"enablehscroll" : 1,
										"enablevscroll" : 1,
										"devicewidth" : 0.0,
										"description" : "",
										"digest" : "",
										"tags" : "",
										"style" : "",
										"subpatcher_template" : "",
										"assistshowspatchername" : 0,
										"boxes" : [ 											{
												"box" : 												{
													"id" : "obj-22",
													"maxclass" : "newobj",
													"numinlets" : 2,
													"numoutlets" : 2,
													"outlettype" : [ "", "" ],
													"patching_rect" : [ 50.0, 100.0, 65.0, 22.0 ],
													"text" : "route clear"
												}

											}
, 											{
												"box" : 												{
													"id" : "obj-14",
													"maxclass" : "newobj",
													"numinlets" : 1,
													"numoutlets" : 1,
													"outlettype" : [ "" ],
													"patching_rect" : [ 96.0, 376.5, 135.0, 22.0 ],
													"text" : "dict.unpack beat_count:"
												}

											}
, 											{
												"box" : 												{
													"id" : "obj-13",
													"maxclass" : "newobj",
													"numinlets" : 1,
													"numoutlets" : 1,
													"outlettype" : [ "" ],
													"patching_rect" : [ 96.0, 292.25, 126.0, 22.0 ],
													"text" : "dict.unpack metadata:"
												}

											}
, 											{
												"box" : 												{
													"id" : "obj-11",
													"maxclass" : "message",
													"numinlets" : 2,
													"numoutlets" : 1,
													"outlettype" : [ "" ],
													"patching_rect" : [ 96.0, 200.0, 77.0, 22.0 ],
													"text" : "dictionary $1"
												}

											}
, 											{
												"box" : 												{
													"comment" : "",
													"id" : "obj-10",
													"index" : 1,
													"maxclass" : "inlet",
													"numinlets" : 0,
													"numoutlets" : 1,
													"outlettype" : [ "" ],
													"patching_rect" : [ 50.0, 40.0, 30.0, 30.0 ]
												}

											}
, 											{
												"box" : 												{
													"comment" : "",
													"id" : "obj-12",
													"index" : 1,
													"maxclass" : "outlet",
													"numinlets" : 1,
													"numoutlets" : 0,
													"patching_rect" : [ 96.0, 458.5, 30.0, 30.0 ]
												}

											}
 ],
										"lines" : [ 											{
												"patchline" : 												{
													"destination" : [ "obj-22", 0 ],
													"source" : [ "obj-10", 0 ]
												}

											}
, 											{
												"patchline" : 												{
													"destination" : [ "obj-13", 0 ],
													"source" : [ "obj-11", 0 ]
												}

											}
, 											{
												"patchline" : 												{
													"destination" : [ "obj-14", 0 ],
													"source" : [ "obj-13", 0 ]
												}

											}
, 											{
												"patchline" : 												{
													"destination" : [ "obj-12", 0 ],
													"source" : [ "obj-14", 0 ]
												}

											}
, 											{
												"patchline" : 												{
													"destination" : [ "obj-11", 0 ],
													"source" : [ "obj-22", 1 ]
												}

											}
 ]
									}
,
									"patching_rect" : [ 29.0, 184.0, 92.0, 22.0 ],
									"saved_object_attributes" : 									{
										"description" : "",
										"digest" : "",
										"globalpatchername" : "",
										"tags" : ""
									}
,
									"text" : "p get_end_beat"
								}

							}
, 							{
								"box" : 								{
									"id" : "obj-9",
									"maxclass" : "newobj",
									"numinlets" : 1,
									"numoutlets" : 1,
									"outlettype" : [ "" ],
									"patcher" : 									{
										"fileversion" : 1,
										"appversion" : 										{
											"major" : 8,
											"minor" : 5,
											"revision" : 4,
											"architecture" : "x64",
											"modernui" : 1
										}
,
										"classnamespace" : "box",
										"rect" : [ 0.0, 0.0, 640.0, 480.0 ],
										"bglocked" : 0,
										"openinpresentation" : 0,
										"default_fontsize" : 12.0,
										"default_fontface" : 0,
										"default_fontname" : "Arial",
										"gridonopen" : 1,
										"gridsize" : [ 15.0, 15.0 ],
										"gridsnaponopen" : 1,
										"objectsnaponopen" : 1,
										"statusbarvisible" : 2,
										"toolbarvisible" : 1,
										"lefttoolbarpinned" : 0,
										"toptoolbarpinned" : 0,
										"righttoolbarpinned" : 0,
										"bottomtoolbarpinned" : 0,
										"toolbars_unpinned_last_save" : 0,
										"tallnewobj" : 0,
										"boxanimatetime" : 200,
										"enablehscroll" : 1,
										"enablevscroll" : 1,
										"devicewidth" : 0.0,
										"description" : "",
										"digest" : "",
										"tags" : "",
										"style" : "",
										"subpatcher_template" : "",
										"assistshowspatchername" : 0,
										"boxes" : [ 											{
												"box" : 												{
													"id" : "obj-22",
													"maxclass" : "newobj",
													"numinlets" : 2,
													"numoutlets" : 2,
													"outlettype" : [ "", "" ],
													"patching_rect" : [ 50.0, 100.0, 65.0, 22.0 ],
													"text" : "route clear"
												}

											}
, 											{
												"box" : 												{
													"id" : "obj-2",
													"maxclass" : "message",
													"numinlets" : 2,
													"numoutlets" : 1,
													"outlettype" : [ "" ],
													"patching_rect" : [ 96.0, 177.5, 77.0, 22.0 ],
													"text" : "dictionary $1"
												}

											}
, 											{
												"box" : 												{
													"id" : "obj-4",
													"maxclass" : "newobj",
													"numinlets" : 1,
													"numoutlets" : 1,
													"outlettype" : [ "" ],
													"patching_rect" : [ 96.0, 336.0, 109.0, 22.0 ],
													"text" : "dict.unpack tempo:"
												}

											}
, 											{
												"box" : 												{
													"id" : "obj-11",
													"maxclass" : "newobj",
													"numinlets" : 1,
													"numoutlets" : 1,
													"outlettype" : [ "" ],
													"patching_rect" : [ 96.0, 256.75, 126.0, 22.0 ],
													"text" : "dict.unpack metadata:"
												}

											}
, 											{
												"box" : 												{
													"comment" : "",
													"id" : "obj-5",
													"index" : 1,
													"maxclass" : "inlet",
													"numinlets" : 0,
													"numoutlets" : 1,
													"outlettype" : [ "" ],
													"patching_rect" : [ 50.000006199999802, 40.0, 30.0, 30.0 ]
												}

											}
, 											{
												"box" : 												{
													"comment" : "",
													"id" : "obj-8",
													"index" : 1,
													"maxclass" : "outlet",
													"numinlets" : 1,
													"numoutlets" : 0,
													"patching_rect" : [ 96.000006199999802, 418.0, 30.0, 30.0 ]
												}

											}
 ],
										"lines" : [ 											{
												"patchline" : 												{
													"destination" : [ "obj-4", 0 ],
													"source" : [ "obj-11", 0 ]
												}

											}
, 											{
												"patchline" : 												{
													"destination" : [ "obj-11", 0 ],
													"source" : [ "obj-2", 0 ]
												}

											}
, 											{
												"patchline" : 												{
													"destination" : [ "obj-2", 0 ],
													"source" : [ "obj-22", 1 ]
												}

											}
, 											{
												"patchline" : 												{
													"destination" : [ "obj-8", 0 ],
													"source" : [ "obj-4", 0 ]
												}

											}
, 											{
												"patchline" : 												{
													"destination" : [ "obj-22", 0 ],
													"source" : [ "obj-5", 0 ]
												}

											}
 ]
									}
,
									"patching_rect" : [ 217.849999999999994, 184.0, 75.0, 22.0 ],
									"saved_object_attributes" : 									{
										"description" : "",
										"digest" : "",
										"globalpatchername" : "",
										"tags" : ""
									}
,
									"text" : "p get_tempo"
								}

							}
, 							{
								"box" : 								{
									"comment" : "(symbol) dict name",
									"id" : "obj-3",
									"index" : 1,
									"maxclass" : "inlet",
									"numinlets" : 0,
									"numoutlets" : 1,
									"outlettype" : [ "" ],
									"patching_rect" : [ 29.0, 22.0, 30.0, 30.0 ]
								}

							}
, 							{
								"box" : 								{
									"comment" : "intial values to params",
									"id" : "obj-6",
									"index" : 1,
									"maxclass" : "outlet",
									"numinlets" : 1,
									"numoutlets" : 0,
									"patching_rect" : [ 29.0, 458.0, 30.0, 30.0 ]
								}

							}
, 							{
								"box" : 								{
									"id" : "obj-7",
									"linecount" : 2,
									"maxclass" : "message",
									"numinlets" : 2,
									"numoutlets" : 1,
									"outlettype" : [ "" ],
									"patching_rect" : [ 217.849999999999994, 291.75, 135.0, 35.0 ],
									"text" : "master::params::tempo $1"
								}

							}
, 							{
								"box" : 								{
									"id" : "obj-4",
									"linecount" : 2,
									"maxclass" : "message",
									"numinlets" : 2,
									"numoutlets" : 1,
									"outlettype" : [ "" ],
									"patching_rect" : [ 29.0, 291.75, 152.0, 35.0 ],
									"text" : "master::params::end_beat $1"
								}

							}
 ],
						"lines" : [ 							{
								"patchline" : 								{
									"destination" : [ "obj-4", 0 ],
									"source" : [ "obj-13", 0 ]
								}

							}
, 							{
								"patchline" : 								{
									"destination" : [ "obj-13", 0 ],
									"order" : 1,
									"source" : [ "obj-3", 0 ]
								}

							}
, 							{
								"patchline" : 								{
									"destination" : [ "obj-9", 0 ],
									"order" : 0,
									"source" : [ "obj-3", 0 ]
								}

							}
, 							{
								"patchline" : 								{
									"destination" : [ "obj-6", 0 ],
									"source" : [ "obj-4", 0 ]
								}

							}
, 							{
								"patchline" : 								{
									"destination" : [ "obj-6", 0 ],
									"source" : [ "obj-7", 0 ]
								}

							}
, 							{
								"patchline" : 								{
									"destination" : [ "obj-7", 0 ],
									"source" : [ "obj-9", 0 ]
								}

							}
 ]
					}
,
					"patching_rect" : [ 17.333331982294794, 620.500013879196104, 122.0, 22.0 ],
					"saved_object_attributes" : 					{
						"description" : "",
						"digest" : "",
						"globalpatchername" : "",
						"tags" : ""
					}
,
					"text" : "p load_initial_params"
				}

			}
, 			{
				"box" : 				{
					"bgmode" : 0,
					"border" : 0,
					"clickthrough" : 0,
					"enablehscroll" : 0,
					"enablevscroll" : 0,
					"id" : "obj-48",
					"lockeddragscroll" : 0,
					"lockedsize" : 0,
					"maxclass" : "bpatcher",
					"name" : "djazz_view_session_file.maxpat",
					"numinlets" : 0,
					"numoutlets" : 1,
					"offset" : [ 0.0, 0.0 ],
					"outlettype" : [ "" ],
					"patching_rect" : [ 1380.166607856750488, 574.166681553550688, 157.33333420753479, 37.333330631256104 ],
					"presentation" : 1,
					"presentation_rect" : [ 933.696199041396994, 8.833331371971099, 157.33333420753479, 37.333330631256104 ],
					"viewvisibility" : 1
				}

			}
, 			{
				"box" : 				{
					"id" : "obj-45",
					"maxclass" : "newobj",
					"numinlets" : 1,
					"numoutlets" : 1,
					"outlettype" : [ "" ],
					"patcher" : 					{
						"fileversion" : 1,
						"appversion" : 						{
							"major" : 8,
							"minor" : 5,
							"revision" : 4,
							"architecture" : "x64",
							"modernui" : 1
						}
,
						"classnamespace" : "box",
						"rect" : [ 59.0, 119.0, 685.0, 705.0 ],
						"bglocked" : 0,
						"openinpresentation" : 0,
						"default_fontsize" : 12.0,
						"default_fontface" : 0,
						"default_fontname" : "Arial",
						"gridonopen" : 1,
						"gridsize" : [ 15.0, 15.0 ],
						"gridsnaponopen" : 1,
						"objectsnaponopen" : 1,
						"statusbarvisible" : 2,
						"toolbarvisible" : 1,
						"lefttoolbarpinned" : 0,
						"toptoolbarpinned" : 0,
						"righttoolbarpinned" : 0,
						"bottomtoolbarpinned" : 0,
						"toolbars_unpinned_last_save" : 0,
						"tallnewobj" : 0,
						"boxanimatetime" : 200,
						"enablehscroll" : 1,
						"enablevscroll" : 1,
						"devicewidth" : 0.0,
						"description" : "",
						"digest" : "",
						"tags" : "",
						"style" : "",
						"subpatcher_template" : "",
						"assistshowspatchername" : 0,
						"boxes" : [ 							{
								"box" : 								{
									"id" : "obj-42",
									"maxclass" : "dict.view",
									"numinlets" : 1,
									"numoutlets" : 0,
									"patching_rect" : [ 375.000010649363276, 490.333349227905273, 189.0, 173.0 ]
								}

							}
, 							{
								"box" : 								{
									"id" : "obj-36",
									"maxclass" : "newobj",
									"numinlets" : 1,
									"numoutlets" : 2,
									"outlettype" : [ "bang", "" ],
									"patching_rect" : [ 122.0, 278.0, 92.0, 22.0 ],
									"text" : "t b s"
								}

							}
, 							{
								"box" : 								{
									"id" : "obj-37",
									"maxclass" : "message",
									"numinlets" : 2,
									"numoutlets" : 1,
									"outlettype" : [ "" ],
									"patching_rect" : [ 122.0, 436.0, 116.0, 22.0 ],
									"text" : "VIEW_SONG_DICT"
								}

							}
, 							{
								"box" : 								{
									"id" : "obj-8",
									"maxclass" : "message",
									"numinlets" : 2,
									"numoutlets" : 1,
									"outlettype" : [ "" ],
									"patching_rect" : [ 195.0, 340.0, 92.0, 22.0 ],
									"text" : "import $1, bang"
								}

							}
, 							{
								"box" : 								{
									"id" : "obj-38",
									"maxclass" : "newobj",
									"numinlets" : 2,
									"numoutlets" : 2,
									"outlettype" : [ "", "" ],
									"patching_rect" : [ 50.0, 100.0, 91.0, 22.0 ],
									"text" : "routepass clear"
								}

							}
, 							{
								"box" : 								{
									"id" : "obj-39",
									"maxclass" : "newobj",
									"numinlets" : 1,
									"numoutlets" : 1,
									"outlettype" : [ "" ],
									"patching_rect" : [ 122.0, 230.0, 197.0, 22.0 ],
									"saved_object_attributes" : 									{
										"filename" : "djazz_get_navigation_file_path.js",
										"parameter_enable" : 0
									}
,
									"text" : "js djazz_get_navigation_file_path.js"
								}

							}
, 							{
								"box" : 								{
									"id" : "obj-31",
									"linecount" : 2,
									"maxclass" : "newobj",
									"numinlets" : 1,
									"numoutlets" : 3,
									"outlettype" : [ "", "", "" ],
									"patching_rect" : [ 351.666677633921381, 287.166662128227244, 65.666666030883789, 35.0 ],
									"restore" : [ 										{

										}
 ],
									"saved_object_attributes" : 									{
										"parameter_enable" : 0,
										"parameter_mappable" : 0
									}
,
									"text" : "pattr song_dict",
									"varname" : "song_dict"
								}

							}
, 							{
								"box" : 								{
									"id" : "obj-19",
									"linecount" : 2,
									"maxclass" : "newobj",
									"numinlets" : 2,
									"numoutlets" : 4,
									"outlettype" : [ "dictionary", "", "", "" ],
									"patching_rect" : [ 375.000010649363276, 381.833330330337503, 120.666666150093079, 35.0 ],
									"saved_object_attributes" : 									{
										"embed" : 0,
										"parameter_enable" : 0,
										"parameter_mappable" : 0
									}
,
									"text" : "dict VIEW_SONG_DICT",
									"varname" : "dict"
								}

							}
, 							{
								"box" : 								{
									"comment" : "",
									"id" : "obj-43",
									"index" : 1,
									"maxclass" : "inlet",
									"numinlets" : 0,
									"numoutlets" : 1,
									"outlettype" : [ "" ],
									"patching_rect" : [ 49.99995652834582, 39.999998092651367, 30.0, 30.0 ]
								}

							}
, 							{
								"box" : 								{
									"comment" : "",
									"id" : "obj-44",
									"index" : 1,
									"maxclass" : "outlet",
									"numinlets" : 1,
									"numoutlets" : 0,
									"patching_rect" : [ 66.99995652834582, 650.333372092651416, 30.0, 30.0 ]
								}

							}
 ],
						"lines" : [ 							{
								"patchline" : 								{
									"destination" : [ "obj-42", 0 ],
									"source" : [ "obj-19", 0 ]
								}

							}
, 							{
								"patchline" : 								{
									"destination" : [ "obj-19", 0 ],
									"source" : [ "obj-31", 1 ]
								}

							}
, 							{
								"patchline" : 								{
									"destination" : [ "obj-37", 0 ],
									"source" : [ "obj-36", 0 ]
								}

							}
, 							{
								"patchline" : 								{
									"destination" : [ "obj-8", 0 ],
									"source" : [ "obj-36", 1 ]
								}

							}
, 							{
								"patchline" : 								{
									"destination" : [ "obj-44", 0 ],
									"source" : [ "obj-37", 0 ]
								}

							}
, 							{
								"patchline" : 								{
									"destination" : [ "obj-19", 0 ],
									"order" : 0,
									"source" : [ "obj-38", 0 ]
								}

							}
, 							{
								"patchline" : 								{
									"destination" : [ "obj-39", 0 ],
									"source" : [ "obj-38", 1 ]
								}

							}
, 							{
								"patchline" : 								{
									"destination" : [ "obj-44", 0 ],
									"order" : 1,
									"source" : [ "obj-38", 0 ]
								}

							}
, 							{
								"patchline" : 								{
									"destination" : [ "obj-36", 0 ],
									"source" : [ "obj-39", 0 ]
								}

							}
, 							{
								"patchline" : 								{
									"destination" : [ "obj-38", 0 ],
									"source" : [ "obj-43", 0 ]
								}

							}
, 							{
								"patchline" : 								{
									"destination" : [ "obj-19", 0 ],
									"source" : [ "obj-8", 0 ]
								}

							}
 ]
					}
,
					"patching_rect" : [ 56.499987244606018, 212.499992844547251, 99.0, 22.0 ],
					"saved_object_attributes" : 					{
						"description" : "",
						"digest" : "",
						"globalpatchername" : "",
						"tags" : ""
					}
,
					"text" : "p load_song_dict",
					"varname" : "patcher"
				}

			}
, 			{
				"box" : 				{
					"bgmode" : 0,
					"border" : 0,
					"clickthrough" : 0,
					"enablehscroll" : 0,
					"enablevscroll" : 0,
					"id" : "obj-41",
					"lockeddragscroll" : 0,
					"lockedsize" : 0,
					"maxclass" : "bpatcher",
					"name" : "djazz_view_load_score_files.maxpat",
					"numinlets" : 1,
					"numoutlets" : 2,
					"offset" : [ 0.0, 0.0 ],
					"outlettype" : [ "clear", "clear" ],
					"patching_rect" : [ 159.999902486801147, 150.333336710929871, 462.666676640510559, 78.666665196418762 ],
					"presentation" : 1,
					"presentation_rect" : [ 7.333231270313263, 137.000001668930054, 497.333344340324402, 77.333331823348999 ],
					"varname" : "djazz_view_load_score_files",
					"viewvisibility" : 1
				}

			}
, 			{
				"box" : 				{
					"bgmode" : 0,
					"border" : 0,
					"clickthrough" : 0,
					"enablehscroll" : 0,
					"enablevscroll" : 0,
					"id" : "obj-40",
					"lockeddragscroll" : 0,
					"lockedsize" : 0,
					"maxclass" : "bpatcher",
					"name" : "djazz_view_load_song_folder.maxpat",
					"numinlets" : 0,
					"numoutlets" : 1,
					"offset" : [ 0.0, 0.0 ],
					"outlettype" : [ "" ],
					"patching_rect" : [ 159.999902486801147, 9.333333611488342, 450.66667628288269, 106.666666030883789 ],
					"presentation" : 1,
					"presentation_rect" : [ -0.000102281570435, 50.666668176651001, 490.666677474975586, 71.999998331069946 ],
					"varname" : "djazz_view_load_song_folder",
					"viewvisibility" : 1
				}

			}
, 			{
				"box" : 				{
					"comment" : "to model pattrstorage",
					"id" : "obj-15",
					"index" : 0,
					"maxclass" : "outlet",
					"numinlets" : 1,
					"numoutlets" : 0,
					"patching_rect" : [ 1401.499942898750305, 1029.833333310569742, 30.0, 30.0 ]
				}

			}
, 			{
				"box" : 				{
					"id" : "obj-18",
					"maxclass" : "newobj",
					"numinlets" : 1,
					"numoutlets" : 3,
					"outlettype" : [ "", "", "" ],
					"patching_rect" : [ 1393.833274960517883, 684.500014117614683, 130.0, 22.0 ],
					"saved_object_attributes" : 					{
						"filename" : "djazz_session_file.js",
						"parameter_enable" : 0
					}
,
					"text" : "js djazz_session_file.js"
				}

			}
, 			{
				"box" : 				{
					"id" : "obj-17",
					"maxclass" : "comment",
					"numinlets" : 1,
					"numoutlets" : 0,
					"patching_rect" : [ 722.666655302047729, 241.833327052082041, 59.333330631256104, 20.0 ],
					"presentation" : 1,
					"presentation_rect" : [ 597.333318710327148, 279.000000715255737, 63.0, 20.0 ],
					"text" : "OCTAVE",
					"textcolor" : [ 1.0, 1.0, 1.0, 1.0 ]
				}

			}
, 			{
				"box" : 				{
					"bgmode" : 0,
					"border" : 0,
					"clickthrough" : 0,
					"enablehscroll" : 0,
					"enablevscroll" : 0,
					"id" : "obj-13",
					"lockeddragscroll" : 0,
					"lockedsize" : 0,
					"maxclass" : "bpatcher",
					"name" : "djazz_transpose_octave_controller.maxpat",
					"numinlets" : 1,
					"numoutlets" : 0,
					"offset" : [ 0.0, 0.0 ],
					"patching_rect" : [ 802.66663658618927, 221.16666137882612, 389.333341121673584, 61.333331346511841 ],
					"presentation" : 1,
					"presentation_rect" : [ 662.333318710327148, 248.000000715255737, 377.0, 57.0 ],
					"varname" : "transpose_octave",
					"viewvisibility" : 1
				}

			}
, 			{
				"box" : 				{
					"args" : [ "midi_gen_2" ],
					"bgmode" : 1,
					"border" : 1,
					"clickthrough" : 0,
					"enablehscroll" : 0,
					"enablevscroll" : 0,
					"id" : "obj-12",
					"lockeddragscroll" : 0,
					"lockedsize" : 0,
					"maxclass" : "bpatcher",
					"name" : "djazz_midi_player_view.maxpat",
					"numinlets" : 1,
					"numoutlets" : 0,
					"offset" : [ 0.0, 0.0 ],
					"patching_rect" : [ 686.833322525024414, 327.833332237686136, 520.5, 196.0 ],
					"presentation" : 1,
					"presentation_rect" : [ 561.029533248931784, 339.666676044464111, 531.0, 184.0 ],
					"varname" : "midi_gen_2",
					"viewvisibility" : 1
				}

			}
, 			{
				"box" : 				{
					"args" : [ "midi_gen_1" ],
					"bgmode" : 1,
					"border" : 1,
					"clickthrough" : 0,
					"enablehscroll" : 0,
					"enablevscroll" : 0,
					"id" : "obj-10",
					"lockeddragscroll" : 0,
					"lockedsize" : 0,
					"maxclass" : "bpatcher",
					"name" : "djazz_midi_player_view.maxpat",
					"numinlets" : 1,
					"numoutlets" : 0,
					"offset" : [ 0.0, 0.0 ],
					"patching_rect" : [ 686.833322525024414, 20.666666714889516, 531.5, 273.500002679313639 ],
					"presentation" : 1,
					"presentation_rect" : [ 561.029533248931784, 50.666668176651001, 530.0, 281.0 ],
					"varname" : "midi_gen_1",
					"viewvisibility" : 1
				}

			}
, 			{
				"box" : 				{
					"comment" : "",
					"id" : "obj-9",
					"index" : 0,
					"maxclass" : "inlet",
					"numinlets" : 0,
					"numoutlets" : 1,
					"outlettype" : [ "" ],
					"patching_rect" : [ 1271.499974489212036, 21.333330480796803, 30.0, 30.0 ]
				}

			}
, 			{
				"box" : 				{
					"id" : "obj-7",
					"maxclass" : "newobj",
					"numinlets" : 1,
					"numoutlets" : 2,
					"outlettype" : [ "", "" ],
					"patching_rect" : [ 32.5, 136.999999937499979, 53.0, 22.0 ],
					"text" : "pattrhub"
				}

			}
, 			{
				"box" : 				{
					"bgmode" : 1,
					"border" : 1,
					"clickthrough" : 0,
					"enablehscroll" : 1,
					"enablevscroll" : 1,
					"id" : "obj-6",
					"lockeddragscroll" : 0,
					"lockedsize" : 0,
					"maxclass" : "bpatcher",
					"name" : "djazz_midi_out_bank_view.maxpat",
					"numinlets" : 2,
					"numoutlets" : 2,
					"offset" : [ 0.0, 0.0 ],
					"outlettype" : [ "", "" ],
					"patching_rect" : [ 188.333270788192749, 611.833340701545694, 980.5, 296.0 ],
					"presentation" : 1,
					"presentation_rect" : [ 13.999898135662079, 533.500009945289548, 1078.029635113269705, 458.999999046325684 ],
					"varname" : "midi_out_bank",
					"viewvisibility" : 1
				}

			}
, 			{
				"box" : 				{
					"id" : "obj-4",
					"maxclass" : "newobj",
					"numinlets" : 1,
					"numoutlets" : 1,
					"outlettype" : [ "" ],
					"patching_rect" : [ 1034.833270788192749, 953.833333310569742, 134.0, 22.0 ],
					"text" : "prepend midi_out_bank"
				}

			}
, 			{
				"box" : 				{
					"comment" : "components messages",
					"id" : "obj-3",
					"index" : 0,
					"maxclass" : "outlet",
					"numinlets" : 1,
					"numoutlets" : 0,
					"patching_rect" : [ 1493.83328104019165, 1029.833333310569742, 30.0, 30.0 ]
				}

			}
, 			{
				"box" : 				{
					"comment" : "BANG",
					"id" : "obj-5",
					"index" : 0,
					"maxclass" : "outlet",
					"numinlets" : 1,
					"numoutlets" : 0,
					"patching_rect" : [ 125.499987244606018, 1003.166665253128031, 30.0, 30.0 ]
				}

			}
, 			{
				"box" : 				{
					"comment" : "ctrl params",
					"id" : "obj-2",
					"index" : 0,
					"maxclass" : "outlet",
					"numinlets" : 1,
					"numoutlets" : 0,
					"patching_rect" : [ 1271.499974489212036, 1031.833330449546793, 30.0, 30.0 ]
				}

			}
, 			{
				"box" : 				{
					"id" : "obj-1",
					"maxclass" : "newobj",
					"numinlets" : 1,
					"numoutlets" : 1,
					"outlettype" : [ "" ],
					"patching_rect" : [ 1271.499974489212036, 819.166684772201506, 322.0, 22.0 ],
					"saved_object_attributes" : 					{
						"client_rect" : [ 1250, 164, 1728, 695 ],
						"parameter_enable" : 0,
						"parameter_mappable" : 0,
						"storage_rect" : [ 583, 69, 1034, 197 ]
					}
,
					"text" : "pattrstorage view_pattrstorage @greedy 1 @outputmode 5",
					"varname" : "view_pattrstorage"
				}

			}
, 			{
				"box" : 				{
					"bgmode" : 1,
					"border" : 1,
					"clickthrough" : 0,
					"enablehscroll" : 0,
					"enablevscroll" : 0,
					"id" : "obj-47",
					"lockeddragscroll" : 0,
					"lockedsize" : 0,
					"maxclass" : "bpatcher",
					"name" : "djazz_master_view.maxpat",
					"numinlets" : 2,
					"numoutlets" : 1,
					"offset" : [ 0.0, 0.0 ],
					"outlettype" : [ "bang" ],
					"patching_rect" : [ 121.499987125396729, 269.000001192092896, 532.0, 291.0 ],
					"presentation" : 1,
					"presentation_rect" : [ 13.999898135662079, 223.666676044464111, 538.362882000000013, 300.0 ],
					"varname" : "master",
					"viewvisibility" : 1
				}

			}
, 			{
				"box" : 				{
					"comment" : "from model out -- view params",
					"id" : "obj-60",
					"index" : 0,
					"maxclass" : "inlet",
					"numinlets" : 0,
					"numoutlets" : 1,
					"outlettype" : [ "" ],
					"patching_rect" : [ 32.5, 16.0, 30.0, 30.0 ]
				}

			}
 ],
		"lines" : [ 			{
				"patchline" : 				{
					"destination" : [ "obj-2", 0 ],
					"source" : [ "obj-1", 0 ]
				}

			}
, 			{
				"patchline" : 				{
					"destination" : [ "obj-1", 0 ],
					"source" : [ "obj-18", 1 ],
					"watchpoint_flags" : 5,
					"watchpoint_id" : 45
				}

			}
, 			{
				"patchline" : 				{
					"destination" : [ "obj-15", 0 ],
					"source" : [ "obj-18", 0 ],
					"watchpoint_flags" : 5,
					"watchpoint_id" : 46
				}

			}
, 			{
				"patchline" : 				{
					"destination" : [ "obj-3", 0 ],
					"source" : [ "obj-18", 2 ],
					"watchpoint_flags" : 5,
					"watchpoint_id" : 47
				}

			}
, 			{
				"patchline" : 				{
					"destination" : [ "obj-2", 0 ],
					"source" : [ "obj-33", 0 ]
				}

			}
, 			{
				"patchline" : 				{
					"destination" : [ "obj-3", 0 ],
					"source" : [ "obj-4", 0 ]
				}

			}
, 			{
				"patchline" : 				{
					"destination" : [ "obj-41", 0 ],
					"order" : 1,
					"source" : [ "obj-40", 0 ]
				}

			}
, 			{
				"patchline" : 				{
					"destination" : [ "obj-45", 0 ],
					"order" : 0,
					"source" : [ "obj-40", 0 ]
				}

			}
, 			{
				"patchline" : 				{
					"destination" : [ "obj-10", 0 ],
					"source" : [ "obj-41", 0 ]
				}

			}
, 			{
				"patchline" : 				{
					"destination" : [ "obj-12", 0 ],
					"source" : [ "obj-41", 1 ]
				}

			}
, 			{
				"patchline" : 				{
					"destination" : [ "obj-33", 0 ],
					"order" : 1,
					"source" : [ "obj-45", 0 ]
				}

			}
, 			{
				"patchline" : 				{
					"destination" : [ "obj-47", 1 ],
					"order" : 0,
					"source" : [ "obj-45", 0 ]
				}

			}
, 			{
				"patchline" : 				{
					"destination" : [ "obj-5", 0 ],
					"source" : [ "obj-47", 0 ]
				}

			}
, 			{
				"patchline" : 				{
					"destination" : [ "obj-18", 0 ],
					"source" : [ "obj-48", 0 ]
				}

			}
, 			{
				"patchline" : 				{
					"destination" : [ "obj-4", 0 ],
					"source" : [ "obj-6", 1 ]
				}

			}
, 			{
				"patchline" : 				{
					"destination" : [ "obj-7", 0 ],
					"source" : [ "obj-60", 0 ]
				}

			}
, 			{
				"patchline" : 				{
					"destination" : [ "obj-1", 0 ],
					"source" : [ "obj-9", 0 ]
				}

			}
 ],
		"parameters" : 		{
			"obj-10::obj-15::obj-40::obj-7" : [ "midi_gen_1_loop_1", "midi_gen_1_loop_1", 0 ],
			"obj-10::obj-15::obj-41::obj-7" : [ "midi_gen_1_loop_2", "midi_gen_1_loop_2", 0 ],
			"obj-10::obj-15::obj-44::obj-7" : [ "midi_gen_1_loop_3", "midi_gen_1_loop_3", 0 ],
			"obj-10::obj-15::obj-45::obj-7" : [ "midi_gen_1_loop_4", "midi_gen_1_loop_4", 0 ],
			"obj-10::obj-15::obj-46::obj-7" : [ "midi_gen_1_loop_8", "midi_gen_1_loop_8", 0 ],
			"obj-10::obj-17::obj-34::obj-7" : [ "midi_gen_1", "midi_gen_1", 0 ],
			"obj-10::obj-17::obj-37::obj-7" : [ "midi_gen_1[7]", "midi_gen_1", 0 ],
			"obj-10::obj-17::obj-38::obj-7" : [ "midi_gen_1[5]", "midi_gen_1", 0 ],
			"obj-10::obj-17::obj-39::obj-7" : [ "midi_gen_1[8]", "midi_gen_1", 0 ],
			"obj-12::obj-15::obj-40::obj-7" : [ "midi_gen_2_loop_1", "midi_gen_2_loop_1", 0 ],
			"obj-12::obj-15::obj-41::obj-7" : [ "midi_gen_2_loop_2", "midi_gen_2_loop_2", 0 ],
			"obj-12::obj-15::obj-44::obj-7" : [ "midi_gen_2_loop_3", "midi_gen_2_loop_3", 0 ],
			"obj-12::obj-15::obj-45::obj-7" : [ "midi_gen_2_loop_4", "midi_gen_2_loop_4", 0 ],
			"obj-12::obj-15::obj-46::obj-7" : [ "midi_gen_2_loop_8", "midi_gen_2_loop_8", 0 ],
			"obj-12::obj-17::obj-34::obj-7" : [ "midi_gen_2", "midi_gen_2", 0 ],
			"obj-12::obj-17::obj-37::obj-7" : [ "midi_gen_2[7]", "midi_gen_2", 0 ],
			"obj-12::obj-17::obj-38::obj-7" : [ "midi_gen_2[5]", "midi_gen_2", 0 ],
			"obj-12::obj-17::obj-39::obj-7" : [ "midi_gen_2[8]", "midi_gen_2", 0 ],
			"obj-13::obj-11::obj-7" : [ "octave_up_2", "octave_up_2", 0 ],
			"obj-13::obj-12::obj-7" : [ "octave_up_3", "octave_up_3", 0 ],
			"obj-13::obj-13::obj-7" : [ "octave_up_4", "octave_up_4", 0 ],
			"obj-13::obj-14::obj-7" : [ "octave_down_1", "octave_down_1", 0 ],
			"obj-13::obj-15::obj-7" : [ "octave_down_2", "octave_down_2", 0 ],
			"obj-13::obj-16::obj-7" : [ "octave_down_3", "octave_down_3", 0 ],
			"obj-13::obj-17::obj-7" : [ "octave_down_4", "octave_down_4", 0 ],
			"obj-13::obj-24::obj-7" : [ "no_octave", "no_octave", 0 ],
			"obj-13::obj-6::obj-7" : [ "octave_up_1", "octave_up_1", 0 ],
			"obj-13::obj-8" : [ "octave_transposition", "octave_transposition", 0 ],
			"obj-47::obj-16::obj-1" : [ "loop_chapter", "loop_chapter", 0 ],
			"obj-47::obj-85::obj-5::obj-21" : [ "grid", "grid", 0 ],
			"obj-47::obj-85::obj-5::obj-28" : [ "chapter_count", "chapter_count", 0 ],
			"obj-47::obj-94::obj-22::obj-24" : [ "chapter_button", "chapter_button", 0 ],
			"obj-47::obj-94::obj-22::obj-25" : [ "bar_button", "bar_button", 0 ],
			"parameterbanks" : 			{
				"0" : 				{
					"index" : 0,
					"name" : "",
					"parameters" : [ "-", "-", "-", "-", "-", "-", "-", "-" ]
				}

			}
,
			"inherited_shortname" : 1
		}
,
		"dependency_cache" : [ 			{
				"name" : "db_dictionary_array_utils.js",
				"bootpath" : "~/Documents/Max 8/Projects/djazz_db/code/tools",
				"patcherrelativepath" : "../../code/tools",
				"type" : "TEXT",
				"implicit" : 1
			}
, 			{
				"name" : "djazz_PARAMS_CTRL_master_view.maxpat",
				"bootpath" : "~/Documents/Max 8/Projects/djazz_db/patchers/params",
				"patcherrelativepath" : "../params",
				"type" : "JSON",
				"implicit" : 1
			}
, 			{
				"name" : "djazz_PARAMS_CTRL_midi_gen_view.maxpat",
				"bootpath" : "~/Documents/Max 8/Projects/djazz_db/patchers/params",
				"patcherrelativepath" : "../params",
				"type" : "JSON",
				"implicit" : 1
			}
, 			{
				"name" : "djazz_PARAMS_VIEW_master_view.maxpat",
				"bootpath" : "~/Documents/Max 8/Projects/djazz_db/patchers/params",
				"patcherrelativepath" : "../params",
				"type" : "JSON",
				"implicit" : 1
			}
, 			{
				"name" : "djazz_PARAMS_VIEW_midi_gen_view.maxpat",
				"bootpath" : "~/Documents/Max 8/Projects/djazz_db/patchers/params",
				"patcherrelativepath" : "../params",
				"type" : "JSON",
				"implicit" : 1
			}
, 			{
				"name" : "djazz_PARAMS_grid_ctrl.maxpat",
				"bootpath" : "~/Documents/Max 8/Projects/djazz_db/patchers/params",
				"patcherrelativepath" : "../params",
				"type" : "JSON",
				"implicit" : 1
			}
, 			{
				"name" : "djazz_PARAMS_grid_view_ctrl.maxpat",
				"bootpath" : "~/Documents/Max 8/Projects/djazz_db/patchers/params",
				"patcherrelativepath" : "../params",
				"type" : "JSON",
				"implicit" : 1
			}
, 			{
				"name" : "djazz_add_multiple_tracks_view_window.maxpat",
				"bootpath" : "~/Documents/Max 8/Projects/djazz_db/patchers/midiout",
				"patcherrelativepath" : "../midiout",
				"type" : "JSON",
				"implicit" : 1
			}
, 			{
				"name" : "djazz_beat_bar_chapter_to_beat.maxpat",
				"bootpath" : "~/Documents/Max 8/Projects/djazz_db/patchers/grid",
				"patcherrelativepath" : "../grid",
				"type" : "JSON",
				"implicit" : 1
			}
, 			{
				"name" : "djazz_beat_to_beat_bar_chapter.maxpat",
				"bootpath" : "~/Documents/Max 8/Projects/djazz_db/patchers/grid",
				"patcherrelativepath" : "../grid",
				"type" : "JSON",
				"implicit" : 1
			}
, 			{
				"name" : "djazz_components_midi_out_bank_view.js",
				"bootpath" : "~/Documents/Max 8/Projects/djazz_db/code/midiout",
				"patcherrelativepath" : "../../code/midiout",
				"type" : "TEXT",
				"implicit" : 1
			}
, 			{
				"name" : "djazz_get_bar_count.maxpat",
				"bootpath" : "~/Documents/Max 8/Projects/djazz_db/patchers/grid",
				"patcherrelativepath" : "../grid",
				"type" : "JSON",
				"implicit" : 1
			}
, 			{
				"name" : "djazz_get_chapter_count.maxpat",
				"bootpath" : "~/Documents/Max 8/Projects/djazz_db/patchers/grid",
				"patcherrelativepath" : "../grid",
				"type" : "JSON",
				"implicit" : 1
			}
, 			{
				"name" : "djazz_get_chapter_start_and_end_beats.maxpat",
				"bootpath" : "~/Documents/Max 8/Projects/djazz_db/patchers/grid",
				"patcherrelativepath" : "../grid",
				"type" : "JSON",
				"implicit" : 1
			}
, 			{
				"name" : "djazz_get_navigation_file_path.js",
				"bootpath" : "~/Documents/Max 8/Projects/djazz_db/code/file_io",
				"patcherrelativepath" : "../../code/file_io",
				"type" : "TEXT",
				"implicit" : 1
			}
, 			{
				"name" : "djazz_grid_ctrl.maxpat",
				"bootpath" : "~/Documents/Max 8/Projects/djazz_db/patchers/grid",
				"patcherrelativepath" : "../grid",
				"type" : "JSON",
				"implicit" : 1
			}
, 			{
				"name" : "djazz_grid_view_ctrl.maxpat",
				"bootpath" : "~/Documents/Max 8/Projects/djazz_db/patchers/grid",
				"patcherrelativepath" : "../grid",
				"type" : "JSON",
				"implicit" : 1
			}
, 			{
				"name" : "djazz_loop_control_view.maxpat",
				"bootpath" : "~/Documents/Max 8/Projects/djazz_db/patchers/midiplayer",
				"patcherrelativepath" : "../midiplayer",
				"type" : "JSON",
				"implicit" : 1
			}
, 			{
				"name" : "djazz_master_clock_view_ctrl.maxpat",
				"bootpath" : "~/Documents/Max 8/Projects/djazz_db/patchers/master",
				"patcherrelativepath" : "../master",
				"type" : "JSON",
				"implicit" : 1
			}
, 			{
				"name" : "djazz_master_view.maxpat",
				"bootpath" : "~/Documents/Max 8/Projects/djazz_db/patchers/master",
				"patcherrelativepath" : "../master",
				"type" : "JSON",
				"implicit" : 1
			}
, 			{
				"name" : "djazz_master_view_beat_out.maxpat",
				"bootpath" : "~/Documents/Max 8/Projects/djazz_db/patchers/master",
				"patcherrelativepath" : "../master",
				"type" : "JSON",
				"implicit" : 1
			}
, 			{
				"name" : "djazz_metro_view.maxpat",
				"bootpath" : "~/Documents/Max 8/Projects/djazz_db/patchers/tools",
				"patcherrelativepath" : "../tools",
				"type" : "JSON",
				"implicit" : 1
			}
, 			{
				"name" : "djazz_midi_gen_view_tempo_view.maxpat",
				"bootpath" : "~/Documents/Max 8/Projects/djazz_db/patchers/midiplayer",
				"patcherrelativepath" : "../midiplayer",
				"type" : "JSON",
				"implicit" : 1
			}
, 			{
				"name" : "djazz_midi_out_bank_view.maxpat",
				"bootpath" : "~/Documents/Max 8/Projects/djazz_db/patchers/midiout",
				"patcherrelativepath" : "../midiout",
				"type" : "JSON",
				"implicit" : 1
			}
, 			{
				"name" : "djazz_midi_out_bank_view_global_port.maxpat",
				"bootpath" : "~/Documents/Max 8/Projects/djazz_db/patchers/midiout",
				"patcherrelativepath" : "../midiout",
				"type" : "JSON",
				"implicit" : 1
			}
, 			{
				"name" : "djazz_midi_out_bank_view_track_number_ctrl.maxpat",
				"bootpath" : "~/Documents/Max 8/Projects/djazz_db/patchers/midiout",
				"patcherrelativepath" : "../midiout",
				"type" : "JSON",
				"implicit" : 1
			}
, 			{
				"name" : "djazz_midi_player_view.maxpat",
				"bootpath" : "~/Documents/Max 8/Projects/djazz_db/patchers/midiplayer",
				"patcherrelativepath" : "../midiplayer",
				"type" : "JSON",
				"implicit" : 1
			}
, 			{
				"name" : "djazz_navigate_bar_ctrl.maxpat",
				"bootpath" : "~/Documents/Max 8/Projects/djazz_db/patchers/grid",
				"patcherrelativepath" : "../grid",
				"type" : "JSON",
				"implicit" : 1
			}
, 			{
				"name" : "djazz_navigate_chapter_ctrl.maxpat",
				"bootpath" : "~/Documents/Max 8/Projects/djazz_db/patchers/grid",
				"patcherrelativepath" : "../grid",
				"type" : "JSON",
				"implicit" : 1
			}
, 			{
				"name" : "djazz_navigate_view_chapter_bar_beat.maxpat",
				"bootpath" : "~/Documents/Max 8/Projects/djazz_db/patchers/grid",
				"patcherrelativepath" : "../grid",
				"type" : "JSON",
				"implicit" : 1
			}
, 			{
				"name" : "djazz_number_button.maxpat",
				"bootpath" : "~/Documents/Max 8/Projects/djazz_db/patchers/tools",
				"patcherrelativepath" : "../tools",
				"type" : "JSON",
				"implicit" : 1
			}
, 			{
				"name" : "djazz_range.maxpat",
				"bootpath" : "~/Documents/Max 8/Projects/djazz_db/patchers/tools",
				"patcherrelativepath" : "../tools",
				"type" : "JSON",
				"implicit" : 1
			}
, 			{
				"name" : "djazz_score_file_view.maxpat",
				"bootpath" : "~/Documents/Max 8/Projects/djazz_db/patchers/song file io",
				"patcherrelativepath" : "../song file io",
				"type" : "JSON",
				"implicit" : 1
			}
, 			{
				"name" : "djazz_select_score_file_view.maxpat",
				"bootpath" : "~/Documents/Max 8/Projects/djazz_db/patchers/song file io",
				"patcherrelativepath" : "../song file io",
				"type" : "JSON",
				"implicit" : 1
			}
, 			{
				"name" : "djazz_session_file.js",
				"bootpath" : "~/Documents/Max 8/Projects/djazz_db/code/file_io",
				"patcherrelativepath" : "../../code/file_io",
				"type" : "TEXT",
				"implicit" : 1
			}
, 			{
				"name" : "djazz_solo_bank_ctrl.js",
				"bootpath" : "~/Documents/Max 8/Projects/djazz_db/code/midiout",
				"patcherrelativepath" : "../../code/midiout",
				"type" : "TEXT",
				"implicit" : 1
			}
, 			{
				"name" : "djazz_speed_button.maxpat",
				"bootpath" : "~/Documents/Max 8/Projects/djazz_db/patchers/tools",
				"patcherrelativepath" : "../tools",
				"type" : "JSON",
				"implicit" : 1
			}
, 			{
				"name" : "djazz_speed_control_view.maxpat",
				"bootpath" : "~/Documents/Max 8/Projects/djazz_db/patchers/midiplayer",
				"patcherrelativepath" : "../midiplayer",
				"type" : "JSON",
				"implicit" : 1
			}
, 			{
				"name" : "djazz_transpose_octave_controller.maxpat",
				"bootpath" : "~/Documents/Max 8/Projects/djazz_db/patchers/midi effects/transpose octave",
				"patcherrelativepath" : "../midi effects/transpose octave",
				"type" : "JSON",
				"implicit" : 1
			}
, 			{
				"name" : "djazz_view_load_score_files.maxpat",
				"bootpath" : "~/Documents/Max 8/Projects/djazz_db/patchers/song file io",
				"patcherrelativepath" : "../song file io",
				"type" : "JSON",
				"implicit" : 1
			}
, 			{
				"name" : "djazz_view_load_song_folder.maxpat",
				"bootpath" : "~/Documents/Max 8/Projects/djazz_db/patchers/song file io",
				"patcherrelativepath" : "../song file io",
				"type" : "JSON",
				"implicit" : 1
			}
, 			{
				"name" : "djazz_view_session_file.maxpat",
				"bootpath" : "~/Documents/Max 8/Projects/djazz_db/patchers/song file io",
				"patcherrelativepath" : "../song file io",
				"type" : "JSON",
				"implicit" : 1
			}
, 			{
				"name" : "pattrinit.js",
				"bootpath" : "~/Documents/Max 8/Projects/djazz_db/code/pattr",
				"patcherrelativepath" : "../../code/pattr",
				"type" : "TEXT",
				"implicit" : 1
			}
 ],
		"autosave" : 0,
		"bgcolor" : [ 0.356862745098039, 0.356862745098039, 0.356862745098039, 1.0 ],
		"editing_bgcolor" : [ 0.768627450980392, 0.788235294117647, 0.792156862745098, 1.0 ]
	}

}
