{
	"patcher" : 	{
		"fileversion" : 1,
		"appversion" : 		{
			"major" : 8,
			"minor" : 5,
			"revision" : 5,
			"architecture" : "x64",
			"modernui" : 1
		}
,
		"classnamespace" : "box",
		"rect" : [ 333.0, 156.0, 1314.0, 989.0 ],
		"bglocked" : 0,
		"openinpresentation" : 1,
		"default_fontsize" : 12.0,
		"default_fontface" : 0,
		"default_fontname" : "Arial",
		"gridonopen" : 1,
		"gridsize" : [ 15.0, 15.0 ],
		"gridsnaponopen" : 1,
		"objectsnaponopen" : 1,
		"statusbarvisible" : 2,
		"toolbarvisible" : 1,
		"lefttoolbarpinned" : 0,
		"toptoolbarpinned" : 0,
		"righttoolbarpinned" : 0,
		"bottomtoolbarpinned" : 0,
		"toolbars_unpinned_last_save" : 0,
		"tallnewobj" : 0,
		"boxanimatetime" : 200,
		"enablehscroll" : 1,
		"enablevscroll" : 1,
		"devicewidth" : 0.0,
		"description" : "",
		"digest" : "",
		"tags" : "",
		"style" : "",
		"subpatcher_template" : "djazz_empty_object",
		"assistshowspatchername" : 0,
		"boxes" : [ 			{
				"box" : 				{
					"id" : "obj-21",
					"linecount" : 2,
					"maxclass" : "message",
					"numinlets" : 2,
					"numoutlets" : 1,
					"outlettype" : [ "" ],
					"patching_rect" : [ 127.0, 584.0, 67.0, 35.0 ],
					"text" : "load_bank $1"
				}

			}
, 			{
				"box" : 				{
					"id" : "obj-19",
					"linecount" : 2,
					"maxclass" : "message",
					"numinlets" : 2,
					"numoutlets" : 1,
					"outlettype" : [ "" ],
					"patching_rect" : [ 23.0, 584.0, 70.0, 35.0 ],
					"text" : "save_bank $1"
				}

			}
, 			{
				"box" : 				{
					"id" : "obj-17",
					"maxclass" : "newobj",
					"numinlets" : 1,
					"numoutlets" : 2,
					"outlettype" : [ "", "bang" ],
					"patching_rect" : [ 127.0, 526.0, 67.0, 22.0 ],
					"text" : "opendialog"
				}

			}
, 			{
				"box" : 				{
					"id" : "obj-16",
					"maxclass" : "newobj",
					"numinlets" : 1,
					"numoutlets" : 3,
					"outlettype" : [ "", "", "bang" ],
					"patching_rect" : [ 23.0, 526.0, 66.0, 22.0 ],
					"text" : "savedialog"
				}

			}
, 			{
				"box" : 				{
					"id" : "obj-9",
					"maxclass" : "textbutton",
					"numinlets" : 1,
					"numoutlets" : 3,
					"outlettype" : [ "", "", "int" ],
					"parameter_enable" : 0,
					"patching_rect" : [ 127.0, 467.0, 69.0, 21.0 ],
					"presentation" : 1,
					"presentation_rect" : [ 371.0, 5.0, 69.0, 21.0 ],
					"text" : "Load",
					"texton" : "Load"
				}

			}
, 			{
				"box" : 				{
					"id" : "obj-8",
					"maxclass" : "textbutton",
					"numinlets" : 1,
					"numoutlets" : 3,
					"outlettype" : [ "", "", "int" ],
					"parameter_enable" : 0,
					"patching_rect" : [ 23.0, 467.0, 69.0, 21.0 ],
					"presentation" : 1,
					"presentation_rect" : [ 447.0, 5.0, 69.0, 21.0 ],
					"text" : "Save",
					"texton" : "Save"
				}

			}
, 			{
				"box" : 				{
					"id" : "obj-5",
					"maxclass" : "newobj",
					"numinlets" : 1,
					"numoutlets" : 1,
					"outlettype" : [ "" ],
					"patching_rect" : [ 572.0, 652.0, 204.0, 22.0 ],
					"saved_object_attributes" : 					{
						"filename" : "djazz_midi_out_solo_bank_view.js",
						"parameter_enable" : 0
					}
,
					"text" : "js djazz_midi_out_solo_bank_view.js",
					"varname" : "solo_bank"
				}

			}
, 			{
				"box" : 				{
					"bgmode" : 0,
					"border" : 0,
					"clickthrough" : 0,
					"enablehscroll" : 0,
					"enablevscroll" : 0,
					"id" : "obj-53",
					"lockeddragscroll" : 0,
					"lockedsize" : 0,
					"maxclass" : "bpatcher",
					"name" : "djazz_midi_out_bank_view_global_port.maxpat",
					"numinlets" : 0,
					"numoutlets" : 0,
					"offset" : [ 0.0, 0.0 ],
					"patching_rect" : [ 16.0, 270.0, 126.0, 31.0 ],
					"presentation" : 1,
					"presentation_rect" : [ 213.0, 0.0, 126.0, 31.0 ],
					"varname" : "global_outport",
					"viewvisibility" : 1
				}

			}
, 			{
				"box" : 				{
					"bgmode" : 0,
					"border" : 0,
					"clickthrough" : 0,
					"enablehscroll" : 0,
					"enablevscroll" : 0,
					"id" : "obj-51",
					"lockeddragscroll" : 0,
					"lockedsize" : 0,
					"maxclass" : "bpatcher",
					"name" : "djazz_midi_out_bank_view_track_number_ctrl.maxpat",
					"numinlets" : 0,
					"numoutlets" : 1,
					"offset" : [ 0.0, 0.0 ],
					"outlettype" : [ "" ],
					"patching_rect" : [ 21.0, 324.0, 187.0, 31.0 ],
					"presentation" : 1,
					"presentation_rect" : [ 0.0, 0.0, 194.0, 31.0 ],
					"viewvisibility" : 1
				}

			}
, 			{
				"box" : 				{
					"comment" : "components messages",
					"id" : "obj-7",
					"index" : 0,
					"maxclass" : "outlet",
					"numinlets" : 1,
					"numoutlets" : 0,
					"patching_rect" : [ 225.0, 852.5, 30.0, 30.0 ],
					"varname" : "components_outlet"
				}

			}
, 			{
				"box" : 				{
					"id" : "obj-4",
					"maxclass" : "newobj",
					"numinlets" : 1,
					"numoutlets" : 4,
					"outlettype" : [ "", "", "", "" ],
					"patching_rect" : [ 21.0, 197.0, 56.0, 22.0 ],
					"restore" : 					{
						"solo_bank" : [ 0, 0, 0, 0, 0, 0, 0, 0 ]
					}
,
					"text" : "autopattr",
					"varname" : "u977001280"
				}

			}
, 			{
				"box" : 				{
					"comment" : "component messages in",
					"id" : "obj-12",
					"index" : 0,
					"maxclass" : "inlet",
					"numinlets" : 0,
					"numoutlets" : 1,
					"outlettype" : [ "" ],
					"patching_rect" : [ 225.0, 16.0, 30.0, 30.0 ]
				}

			}
, 			{
				"box" : 				{
					"id" : "obj-3",
					"maxclass" : "newobj",
					"numinlets" : 1,
					"numoutlets" : 2,
					"outlettype" : [ "", "" ],
					"patching_rect" : [ 21.0, 108.5, 53.0, 22.0 ],
					"text" : "pattrhub"
				}

			}
, 			{
				"box" : 				{
					"comment" : "ctrl variables in name + value",
					"id" : "obj-6",
					"index" : 0,
					"maxclass" : "inlet",
					"numinlets" : 0,
					"numoutlets" : 1,
					"outlettype" : [ "" ],
					"patching_rect" : [ 21.0, 16.0, 30.0, 30.0 ]
				}

			}
, 			{
				"box" : 				{
					"id" : "obj-308",
					"maxclass" : "newobj",
					"numinlets" : 2,
					"numoutlets" : 2,
					"outlettype" : [ "", "" ],
					"patching_rect" : [ 225.0, 652.0, 248.0, 22.0 ],
					"saved_object_attributes" : 					{
						"filename" : "djazz_components_midi_out_bank_view.js",
						"parameter_enable" : 0
					}
,
					"text" : "js djazz_components_midi_out_bank_view.js",
					"varname" : "components"
				}

			}
 ],
		"lines" : [ 			{
				"patchline" : 				{
					"destination" : [ "obj-308", 0 ],
					"source" : [ "obj-12", 0 ]
				}

			}
, 			{
				"patchline" : 				{
					"destination" : [ "obj-19", 0 ],
					"source" : [ "obj-16", 0 ]
				}

			}
, 			{
				"patchline" : 				{
					"destination" : [ "obj-21", 0 ],
					"source" : [ "obj-17", 0 ]
				}

			}
, 			{
				"patchline" : 				{
					"destination" : [ "obj-308", 0 ],
					"midpoints" : [ 32.5, 641.0, 234.5, 641.0 ],
					"order" : 1,
					"source" : [ "obj-19", 0 ]
				}

			}
, 			{
				"patchline" : 				{
					"destination" : [ "obj-7", 0 ],
					"midpoints" : [ 32.5, 798.75, 234.5, 798.75 ],
					"order" : 0,
					"source" : [ "obj-19", 0 ]
				}

			}
, 			{
				"patchline" : 				{
					"destination" : [ "obj-308", 0 ],
					"midpoints" : [ 136.5, 641.0, 234.5, 641.0 ],
					"order" : 1,
					"source" : [ "obj-21", 0 ]
				}

			}
, 			{
				"patchline" : 				{
					"destination" : [ "obj-7", 0 ],
					"midpoints" : [ 136.5, 798.75, 234.5, 798.75 ],
					"order" : 0,
					"source" : [ "obj-21", 0 ]
				}

			}
, 			{
				"patchline" : 				{
					"destination" : [ "obj-7", 0 ],
					"source" : [ "obj-308", 0 ]
				}

			}
, 			{
				"patchline" : 				{
					"destination" : [ "obj-308", 0 ],
					"midpoints" : [ 30.5, 401.0, 234.5, 401.0 ],
					"source" : [ "obj-51", 0 ]
				}

			}
, 			{
				"patchline" : 				{
					"destination" : [ "obj-3", 0 ],
					"source" : [ "obj-6", 0 ]
				}

			}
, 			{
				"patchline" : 				{
					"destination" : [ "obj-16", 0 ],
					"source" : [ "obj-8", 0 ]
				}

			}
, 			{
				"patchline" : 				{
					"destination" : [ "obj-17", 0 ],
					"source" : [ "obj-9", 0 ]
				}

			}
 ],
		"dependency_cache" : [ 			{
				"name" : "db_dictionary_array_utils.js",
				"bootpath" : "~/Documents/Max 8/Projects/djazz_db/code/tools",
				"patcherrelativepath" : "../../code/tools",
				"type" : "TEXT",
				"implicit" : 1
			}
, 			{
				"name" : "djazz_add_multiple_tracks_view_window.maxpat",
				"bootpath" : "~/Documents/Max 8/Projects/djazz_db/patchers/midiout",
				"patcherrelativepath" : ".",
				"type" : "JSON",
				"implicit" : 1
			}
, 			{
				"name" : "djazz_components_midi_out_bank_view.js",
				"bootpath" : "~/Documents/Max 8/Projects/djazz_db/code/midiout",
				"patcherrelativepath" : "../../code/midiout",
				"type" : "TEXT",
				"implicit" : 1
			}
, 			{
				"name" : "djazz_midi_out_bank_view_global_port.maxpat",
				"bootpath" : "~/Documents/Max 8/Projects/djazz_db/patchers/midiout",
				"patcherrelativepath" : ".",
				"type" : "JSON",
				"implicit" : 1
			}
, 			{
				"name" : "djazz_midi_out_bank_view_track_number_ctrl.maxpat",
				"bootpath" : "~/Documents/Max 8/Projects/djazz_db/patchers/midiout",
				"patcherrelativepath" : ".",
				"type" : "JSON",
				"implicit" : 1
			}
, 			{
				"name" : "djazz_midi_out_solo_bank_view.js",
				"bootpath" : "~/Documents/Max 8/Projects/djazz_db/code/midiout",
				"patcherrelativepath" : "../../code/midiout",
				"type" : "TEXT",
				"implicit" : 1
			}
 ],
		"autosave" : 0,
		"bgcolor" : [ 0.682352941176471, 0.76078431372549, 0.768627450980392, 1.0 ],
		"editing_bgcolor" : [ 0.796078431372549, 0.796078431372549, 0.796078431372549, 1.0 ]
	}

}
